<mxfile host="app.diagrams.net" modified="2020-09-23T03:46:17.956Z" agent="5.0 (Windows NT 10.0; Win64; x64) AppleWebKit/537.36 (KHTML, like Gecko) Chrome/84.0.4147.135 Safari/537.36" etag="Tq3XDm1f9CMBcNma7b1S" version="13.6.6" type="github">
  <diagram id="C5RBs43oDa-KdzZeNtuy" name="Page-1">
    <mxGraphModel dx="1422" dy="712" grid="1" gridSize="10" guides="1" tooltips="1" connect="1" arrows="1" fold="1" page="1" pageScale="1" pageWidth="827" pageHeight="1169" background="#FFFFFF" math="0" shadow="0">
      <root>
        <mxCell id="WIyWlLk6GJQsqaUBKTNV-0" />
        <mxCell id="WIyWlLk6GJQsqaUBKTNV-1" parent="WIyWlLk6GJQsqaUBKTNV-0" />
        <mxCell id="pqw7fjh9GeG_KR5K5NP--65" value="" style="rounded=0;whiteSpace=wrap;html=1;strokeWidth=3;fillColor=#ffffff;fontFamily=Helvetica;fontSize=18;fontColor=#050505;" parent="WIyWlLk6GJQsqaUBKTNV-1" vertex="1">
          <mxGeometry x="54" y="140" width="710" height="570" as="geometry" />
        </mxCell>
        <mxCell id="pqw7fjh9GeG_KR5K5NP--12" value="" style="whiteSpace=wrap;html=1;aspect=fixed;dashed=1;strokeWidth=2;dashPattern=1 1;" parent="WIyWlLk6GJQsqaUBKTNV-1" vertex="1">
          <mxGeometry x="510.77" y="308" width="220" height="220" as="geometry" />
        </mxCell>
        <mxCell id="pqw7fjh9GeG_KR5K5NP--10" value="" style="whiteSpace=wrap;html=1;aspect=fixed;dashed=1;strokeWidth=2;dashPattern=1 1;" parent="WIyWlLk6GJQsqaUBKTNV-1" vertex="1">
          <mxGeometry x="85.14" y="280" width="290" height="290" as="geometry" />
        </mxCell>
        <mxCell id="pqw7fjh9GeG_KR5K5NP--2" value="" style="shape=image;verticalLabelPosition=bottom;labelBackgroundColor=#ffffff;verticalAlign=top;aspect=fixed;imageAspect=0;image=data:image/png,iVBORw0KGgoAAAANSUhEUgAAANAAAACZCAYAAABe87TQAAAPCElEQVR4Ae2bb2wbZx3HT+IdL+ANEveCIWX0TaXCWjFELDFBwjpY0IYUFpAiKhT8AgVrCClkaJgiVFl70ZkyIlMEsyIBcpEqHMHAHYI5g5U5FW2djWxpt6zO2tC6rBpm/WekSf6is/3cPXfJ48e+uySX+hspvdjPn3uez/N87nnud1cD/CEBEvBNwPBdkgVJgARAgTgJSCAAAQoUAB6LkgAF4hwggQAEKFAAeCxKAhSIc4AEAhCgQAHgsSgJUCDOARIIQIACBYDHoiRAgTgHSCAAAQoUAF6oRd9ZAC5n0Hh9Eo1/fh6N0x9D48UPtH4X7kLjzF40XvkScOExoDoLXD8d6ulZmT8CFMgft3BKvX0Cjde+gcapAUcWIU2XRyyPoXH5p8DtlXDaxFp6IkCBesIVRuYGcPkoGmfv9S2NvTJ5JXt5PxpXng6jkayjSwIUqEtQoWS7+kvgzD3hi+MVafE+oDYfSpNZSWcCFKgzn3BSby0371+UK4dXgLA+V5LhtJ+1KAlQICWakBKu/nrzV5xOwr28H7i5FFJnWI2XAAXyEgnxc2P1h9srjyQWrs2F2DNWJQhQIEEi5GNj5VuRkcfeOl7OhNxLVkeBNmEORFIesRpdfGITety/VVKgkMe+8WZ0tm32yiPkEceLqZB73b/VUaAQx76x3QEDIUin45l7gPqbIfa6v6uiQGGN/61zaJQ+GL37HkkmnP0431gIa7zb9VCgkIA2Xn0k0vI036P731pIvWU1ggAFEiQCHCO9dbNeTH3rtwF6x6KdCFCgTnS6TduK13OkrZgyOGDlOXU3GksPo2FF266f6bYHzOeTAAXyCY7FSMAiQIE4D0ggAAEKFAAei5IABeIcIIEABChQAHgsSgIUyOccOP/aCu795NC2/372gS/iO48dxIln/+yzJywWhAAF8knv98+c2HZ5vALf95kRzD9/0mePWMwPAQrkhxqAp37ys8gJJISiRD4H1UcxCuQDmlXkkS9/LbICWSsRf7aGAAXyyfkLD38lsgJZKxHviXwObI/FKFCPwET2ofsfjrRA09/9gWgqj5tIgAL5hBv71AORFsiKzvFn8wlQIJ+MKZBPcHdYMQrkc0CjvoWzng3xZ/MJUCCfjBlE8AnuDitGgXwOKMPYPsHdYcUokM8B/fFTRyMbROCDVJ+D6qMYBfIBzSrCV3l8grvDilEgnwMapZdJrWc+fHDqcyADFqNAAQGyeH8ToED9Pf7sfUACFCggQBbvbwIUqL/Hn70PSIACBQTI4v1NgAKFMP53LTwH4/k/ROL3/S88i0+XX8T3K+dx6p3/hNA7VtGJAAXqRKfLtKevXIyEPBtJPHj278hd/VeXPWG2XglQoF6JKfJ/7uVTkZXIEuv+lxZwsX5b0Xp+7ZcABfJLzlPulZvX8Z7n/xhpie4+VcT5Wzc9LefHIAQoUBB6nrLZK5ciLZC1Et1Veg4Xbt/ytJwf/RKgQH7JKcpNv7EceYm+d+GcovX8ulcCFKhXYl3k//q5lyIrkRWd4094BChQeCxdNUVRoicvveFqIz8EJ0CBgjNU1hCl7dxv/n1Z2U4m+CdAgfyz66rkdj8j+sSZk1i88U5XbWWm3glQoN6Z9Vxi6eb15nOYjR50buZ33155pee2skBvBChQb7wC5f75lYvYitd+PvqPv+JPb78VqK0s3B0BCtQdp9ByNQD8aO0CPnKqGHqkztquzaxVQmsrK9IToEB6RpuW43fXrmL81TLed/JZ3zJZrxClL13A+dt8w2DTBqpDxRSoA5ytTHrhv2/jyUsX8NXlMqwXQD9U+ost1Xv/dgIfXniueR/1zdeXcPTym1jgm9ZbOTzKc1EgJRomkICeAAXSM2IOElASoEBKNEwgAT0BCqRnxBwkoCRAgZRomEACegIUSM+IOUhASYACKdEwgQT0BCiQnhFzkICSAAVSomECCegJUCA9I+YgASUBCqREwwQS0BOgQHpGzEECSgIUSImGCSSgJ0CB9IyYgwSUBCiQEg0TSEBPgALpGTEHCSgJUCAlGiaQgJ4ABdIzYg4SUBKgQEo0TCABPQEKpGfEHCSgJECBlGiYQAJ6AhRIz4g5SEBJgAIp0TCBBPQEKJCeEXOQgJIABVKiYQIJ6AlQID0j5iABJQEKpETDBBLQE6BAekbMQQJKAhRIiYYJJKAnQIH0jJiDBJQEKJASDRNIQE+AAukZMQcJKAlQICUaJpCAngAF0jNiDhJQEqBASjRMIAE9AQqkZ8QcJKAkQIGUaJhAAnoCFEjPiDlIQEmAAinRMIEE9AQokJ4Rc5CAkgAFUqJhAgnoCVAgPSPmIAElAQqkRMMEEtAToEB6RsxBAkoCFEiJhgkkoCdAgfSMmIMElAQokBINE0hAT4AC6RkxBwkoCVAgJRomkICeAAXSM2IOElASoEBKNEwgAT0BCqRnxBwkoCRAgZRomEACegIUSM+IOUhASYACKdEwgQT0BCiQnhFzkICSAAVSomECCegJUCA9I+YgASUBCqREwwQS0BOgQHpGzEECSgI7QKAqcmMGDKO739FjVbuzpUNOmdSC/fX2/rGWw6joy1gOTmu3t1nRPLs89qPIrUWvlRRoM8bkRg2VxSLys1mUap4TUCAPkE4fKVAnOl2myRANjEymkT6s/s0uODN2e1Ygub0bXDVrJWRF+2dLcFrbJY6+yqZhGQEWO24F6mUrFkmBIjDoO6cJFCiEsZIhGqBAISDdMVXIY7/Bah6BfvT1ClSdzyAxFsNA+6be3DOM+KE8ljfcV9VQnp3C6OBAO6AxgNhYApl5EQaQB9sJXjjBj/YE0N4D1bA8l0J8aDfMdrsGBkeRmCmi+u76GVNfLSA9MYzdZuucnfsA1JbySLnyjyBxWNVnAO9WUZxJSP02sXsojtTc8rrtp7PijyK3WsPysSmM7LLa5Zn8XdcpM7XqqLfYtMfA3DOCxMz2boP7VKAKCo/G1JG9XXHkXRGfCnIHTEV+EyNHyqhDHmyfAt0oITWkOo8BYzCBwqojUX0hhZiI6HmPnrxAHeUjI7aUjtjttpojSC/Wncqtv1YLSAxu1JfWdwMTeVcUURYoMSnzlQRazSPelGrjes2H0ijfEM2QmQ5j/IBcp1M+dqgET8tFBZt+3HECrRv49sSRw9eCmjOg7q1f9dioI4O5G8MTU0hOjiImDaz5eNEelPp8Upp4A4hNTGFqwlm5DCOG9GINpVkruJHE+F4xuPsw/rgIeLQjcsoVyCOpuRsjk0kkJ0fs1aXZdzv0XUH2QXEeA82r8XQCI3scAc3Jgr1K1J5JuPswlkDyoLyyGDDMKRQ3nLxW/cOITyddK7ZhmEjOO1NX5t0aJxO7H0ogOZ1qXZCsC4Qs5K4Y4tNpD0sD+2whZIHafW2WmULc3glY348guyJGfWuPfShQHdXTRRTnW7/L1yTg1Tzi4kpuplBuJ8nCDR9dtgvU51MYnUwic6yA8pqYSPKgS1deUUohkEvSwZQ7/O2aePuQXrQqKyEl2mokULAnfgW5iTimDmeRnxfbrDLSQuq9UyjIfQZQm09iX7uu2Ey7f/Uqym1GRbueVieqx+P2Bch8QlAC3AKNInNOMGmVq8yOOOUO5FCRt6SrOYy3t6GGEUe+2UaZpQHTVabiej640QVUIN/M444TSBXGlsPXApg8oOuDD3VUF/NOSPlwBrmFHJL2pEyhJCpaSNlXb/NABqVV98QQ2VpHedC7F6j8hLNyxOfW34TVV8tYrtZQs0WRzxND0ronUTXrtNN+48HE+scAh+IYFv3en0VF7pAl0lzWKTOTQ+lY0hbBOGRTcglkSt8LLvkDYsUUFwH5RNb9WRmVWk3qh9xHc10ASb6wUSA3S+mTDNG9FZMybfinUiDdvUZzMkkCoYbiwWFboub2xNr6jSWQPlby3NzL7e1WoCqcyTXc9XakvpJbdz8xMGhttbIorDgSVo+POxNeiKI8Ov227rGG7VVBTH7PURJF5j1+XARXxNCUkbLrmkJRJbvI3jx2ZkmBXLBUH2SIYQhUQ2HSudqr7qkMw5lIomX1tTLys9Z9gBP1apa3tlwbrgybK1CzXe/WsDyfQ2Y6jmHXfYGJ8WOttcSXQNcKSNgT3iONLJ9CoPUrPgUS82iLjyELVCsgISaAOY7sonOlrtfKyOwXk2W9QO6O17F81NnTj/5KbHzk9nYrEKDdwlUrqNqSulvi+nStgCl74idb21B5C/dowQ6OuMp5PlhBB3FxMQ9kUbbvm+qonc44W76uBZJXWcUWbq0ibd+sBnVmyRXIM2gbf5QhhrACyTfxe9N2oKB57mt56aorBKqieNSKFA1jeCiJguMbanPOzbRzL+Bub+KEZ68in9+OqAGQ7rOMvUkUpfOgVkSyHQQw97RD7Et5pK0o2v5hjP/CCWwAUsDAfv4ifxdD8oRne7WaQ2JiCtm5EkRQRZ6c+w47gQKLU21Oiuh1LRAg12mMZT1BhKz9ku3AUBqlZoBBZrn+YiTXx3ugje3xXIXCeBdOnkzt8O9Bb3jWWoWEQED5iPT8oR1edoexDSSecWa8vJoYdv5MS1aVQLCu0NLW0g6vu8PYdmjas8UaGIxj6qA7jG1IFwh3GNtA8+Hsun5b4fj2QCym7cicFa5uhqO9YW9rJe9BINTL68LYVhTTyzJ2RAhLgZRadJ8gQxTbK/VRvhLJN7Xynty6JxBP+cU2pXk0Y4iJcK8kEOB5RiO2gO1jM7wqd8gVkhVtTbRWL6VAADTBDXNIvtcCOj5INWJILcirXx3Ls3H7rQtXv5v9GED8uNiGWp3xCC312RyMOXL1IpBVreZBqvVw1mmFPPZcgeQp1sPfMkQxGdXHbgSyTl47mUHiofbrMs1VIoNiVX624KxArcZ6X7FRv9LSzF8tel6xiSNnvUXQSaBmQe952quF4lUeVIvIyA+Bd8UwOmn1pdVq77+1lYI7f3OlSyG/5KygTpkaSjPOqtZ6daaI6qr0f5p6Fciq3PerPE7LrL+4hXPz4CcS2HEEdsCD1B3HlA3uIwIUqI8Gm10NnwAFCp8pa+wjAhSojwabXQ2fAAUKnylr7CMCFKiPBptdDZ8ABQqfKWvsIwIUqI8Gm10NnwAFCp8pa+wjAhSojwabXQ2fwP8BRNr/7uQNJOcAAAAASUVORK5CYII=;" parent="WIyWlLk6GJQsqaUBKTNV-1" vertex="1">
          <mxGeometry x="164" y="310" width="122.35" height="90" as="geometry" />
        </mxCell>
        <mxCell id="pqw7fjh9GeG_KR5K5NP--3" value="" style="shape=image;verticalLabelPosition=bottom;labelBackgroundColor=#ffffff;verticalAlign=top;aspect=fixed;imageAspect=0;image=data:image/png,iVBORw0KGgoAAAANSUhEUgAAANAAAACZCAYAAABe87TQAAAPCElEQVR4Ae2bb2wbZx3HT+IdL+ANEveCIWX0TaXCWjFELDFBwjpY0IYUFpAiKhT8AgVrCClkaJgiVFl70ZkyIlMEsyIBcpEqHMHAHYI5g5U5FW2djWxpt6zO2tC6rBpm/WekSf6is/3cPXfJ48e+uySX+hspvdjPn3uez/N87nnud1cD/CEBEvBNwPBdkgVJgARAgTgJSCAAAQoUAB6LkgAF4hwggQAEKFAAeCxKAhSIc4AEAhCgQAHgsSgJUCDOARIIQIACBYDHoiRAgTgHSCAAAQoUAF6oRd9ZAC5n0Hh9Eo1/fh6N0x9D48UPtH4X7kLjzF40XvkScOExoDoLXD8d6ulZmT8CFMgft3BKvX0Cjde+gcapAUcWIU2XRyyPoXH5p8DtlXDaxFp6IkCBesIVRuYGcPkoGmfv9S2NvTJ5JXt5PxpXng6jkayjSwIUqEtQoWS7+kvgzD3hi+MVafE+oDYfSpNZSWcCFKgzn3BSby0371+UK4dXgLA+V5LhtJ+1KAlQICWakBKu/nrzV5xOwr28H7i5FFJnWI2XAAXyEgnxc2P1h9srjyQWrs2F2DNWJQhQIEEi5GNj5VuRkcfeOl7OhNxLVkeBNmEORFIesRpdfGITety/VVKgkMe+8WZ0tm32yiPkEceLqZB73b/VUaAQx76x3QEDIUin45l7gPqbIfa6v6uiQGGN/61zaJQ+GL37HkkmnP0431gIa7zb9VCgkIA2Xn0k0vI036P731pIvWU1ggAFEiQCHCO9dbNeTH3rtwF6x6KdCFCgTnS6TduK13OkrZgyOGDlOXU3GksPo2FF266f6bYHzOeTAAXyCY7FSMAiQIE4D0ggAAEKFAAei5IABeIcIIEABChQAHgsSgIUyOccOP/aCu795NC2/372gS/iO48dxIln/+yzJywWhAAF8knv98+c2HZ5vALf95kRzD9/0mePWMwPAQrkhxqAp37ys8gJJISiRD4H1UcxCuQDmlXkkS9/LbICWSsRf7aGAAXyyfkLD38lsgJZKxHviXwObI/FKFCPwET2ofsfjrRA09/9gWgqj5tIgAL5hBv71AORFsiKzvFn8wlQIJ+MKZBPcHdYMQrkc0CjvoWzng3xZ/MJUCCfjBlE8AnuDitGgXwOKMPYPsHdYcUokM8B/fFTRyMbROCDVJ+D6qMYBfIBzSrCV3l8grvDilEgnwMapZdJrWc+fHDqcyADFqNAAQGyeH8ToED9Pf7sfUACFCggQBbvbwIUqL/Hn70PSIACBQTI4v1NgAKFMP53LTwH4/k/ROL3/S88i0+XX8T3K+dx6p3/hNA7VtGJAAXqRKfLtKevXIyEPBtJPHj278hd/VeXPWG2XglQoF6JKfJ/7uVTkZXIEuv+lxZwsX5b0Xp+7ZcABfJLzlPulZvX8Z7n/xhpie4+VcT5Wzc9LefHIAQoUBB6nrLZK5ciLZC1Et1Veg4Xbt/ytJwf/RKgQH7JKcpNv7EceYm+d+GcovX8ulcCFKhXYl3k//q5lyIrkRWd4094BChQeCxdNUVRoicvveFqIz8EJ0CBgjNU1hCl7dxv/n1Z2U4m+CdAgfyz66rkdj8j+sSZk1i88U5XbWWm3glQoN6Z9Vxi6eb15nOYjR50buZ33155pee2skBvBChQb7wC5f75lYvYitd+PvqPv+JPb78VqK0s3B0BCtQdp9ByNQD8aO0CPnKqGHqkztquzaxVQmsrK9IToEB6RpuW43fXrmL81TLed/JZ3zJZrxClL13A+dt8w2DTBqpDxRSoA5ytTHrhv2/jyUsX8NXlMqwXQD9U+ost1Xv/dgIfXniueR/1zdeXcPTym1jgm9ZbOTzKc1EgJRomkICeAAXSM2IOElASoEBKNEwgAT0BCqRnxBwkoCRAgZRomEACegIUSM+IOUhASYACKdEwgQT0BCiQnhFzkICSAAVSomECCegJUCA9I+YgASUBCqREwwQS0BOgQHpGzEECSgIUSImGCSSgJ0CB9IyYgwSUBCiQEg0TSEBPgALpGTEHCSgJUCAlGiaQgJ4ABdIzYg4SUBKgQEo0TCABPQEKpGfEHCSgJECBlGiYQAJ6AhRIz4g5SEBJgAIp0TCBBPQEKJCeEXOQgJIABVKiYQIJ6AlQID0j5iABJQEKpETDBBLQE6BAekbMQQJKAhRIiYYJJKAnQIH0jJiDBJQEKJASDRNIQE+AAukZMQcJKAlQICUaJpCAngAF0jNiDhJQEqBASjRMIAE9AQqkZ8QcJKAkQIGUaJhAAnoCFEjPiDlIQEmAAinRMIEE9AQokJ4Rc5CAkgAFUqJhAgnoCVAgPSPmIAElAQqkRMMEEtAToEB6RsxBAkoCFEiJhgkkoCdAgfSMmIMElAQokBINE0hAT4AC6RkxBwkoCVAgJRomkICeAAXSM2IOElASoEBKNEwgAT0BCqRnxBwkoCRAgZRomEACegIUSM+IOUhASYACKdEwgQT0BCiQnhFzkICSAAVSomECCegJUCA9I+YgASUBCqREwwQS0BOgQHpGzEECSgI7QKAqcmMGDKO739FjVbuzpUNOmdSC/fX2/rGWw6joy1gOTmu3t1nRPLs89qPIrUWvlRRoM8bkRg2VxSLys1mUap4TUCAPkE4fKVAnOl2myRANjEymkT6s/s0uODN2e1Ygub0bXDVrJWRF+2dLcFrbJY6+yqZhGQEWO24F6mUrFkmBIjDoO6cJFCiEsZIhGqBAISDdMVXIY7/Bah6BfvT1ClSdzyAxFsNA+6be3DOM+KE8ljfcV9VQnp3C6OBAO6AxgNhYApl5EQaQB9sJXjjBj/YE0N4D1bA8l0J8aDfMdrsGBkeRmCmi+u76GVNfLSA9MYzdZuucnfsA1JbySLnyjyBxWNVnAO9WUZxJSP02sXsojtTc8rrtp7PijyK3WsPysSmM7LLa5Zn8XdcpM7XqqLfYtMfA3DOCxMz2boP7VKAKCo/G1JG9XXHkXRGfCnIHTEV+EyNHyqhDHmyfAt0oITWkOo8BYzCBwqojUX0hhZiI6HmPnrxAHeUjI7aUjtjttpojSC/Wncqtv1YLSAxu1JfWdwMTeVcUURYoMSnzlQRazSPelGrjes2H0ijfEM2QmQ5j/IBcp1M+dqgET8tFBZt+3HECrRv49sSRw9eCmjOg7q1f9dioI4O5G8MTU0hOjiImDaz5eNEelPp8Upp4A4hNTGFqwlm5DCOG9GINpVkruJHE+F4xuPsw/rgIeLQjcsoVyCOpuRsjk0kkJ0fs1aXZdzv0XUH2QXEeA82r8XQCI3scAc3Jgr1K1J5JuPswlkDyoLyyGDDMKRQ3nLxW/cOITyddK7ZhmEjOO1NX5t0aJxO7H0ogOZ1qXZCsC4Qs5K4Y4tNpD0sD+2whZIHafW2WmULc3glY348guyJGfWuPfShQHdXTRRTnW7/L1yTg1Tzi4kpuplBuJ8nCDR9dtgvU51MYnUwic6yA8pqYSPKgS1deUUohkEvSwZQ7/O2aePuQXrQqKyEl2mokULAnfgW5iTimDmeRnxfbrDLSQuq9UyjIfQZQm09iX7uu2Ey7f/Uqym1GRbueVieqx+P2Bch8QlAC3AKNInNOMGmVq8yOOOUO5FCRt6SrOYy3t6GGEUe+2UaZpQHTVabiej640QVUIN/M444TSBXGlsPXApg8oOuDD3VUF/NOSPlwBrmFHJL2pEyhJCpaSNlXb/NABqVV98QQ2VpHedC7F6j8hLNyxOfW34TVV8tYrtZQs0WRzxND0ronUTXrtNN+48HE+scAh+IYFv3en0VF7pAl0lzWKTOTQ+lY0hbBOGRTcglkSt8LLvkDYsUUFwH5RNb9WRmVWk3qh9xHc10ASb6wUSA3S+mTDNG9FZMybfinUiDdvUZzMkkCoYbiwWFboub2xNr6jSWQPlby3NzL7e1WoCqcyTXc9XakvpJbdz8xMGhttbIorDgSVo+POxNeiKI8Ov227rGG7VVBTH7PURJF5j1+XARXxNCUkbLrmkJRJbvI3jx2ZkmBXLBUH2SIYQhUQ2HSudqr7qkMw5lIomX1tTLys9Z9gBP1apa3tlwbrgybK1CzXe/WsDyfQ2Y6jmHXfYGJ8WOttcSXQNcKSNgT3iONLJ9CoPUrPgUS82iLjyELVCsgISaAOY7sonOlrtfKyOwXk2W9QO6O17F81NnTj/5KbHzk9nYrEKDdwlUrqNqSulvi+nStgCl74idb21B5C/dowQ6OuMp5PlhBB3FxMQ9kUbbvm+qonc44W76uBZJXWcUWbq0ibd+sBnVmyRXIM2gbf5QhhrACyTfxe9N2oKB57mt56aorBKqieNSKFA1jeCiJguMbanPOzbRzL+Bub+KEZ68in9+OqAGQ7rOMvUkUpfOgVkSyHQQw97RD7Et5pK0o2v5hjP/CCWwAUsDAfv4ifxdD8oRne7WaQ2JiCtm5EkRQRZ6c+w47gQKLU21Oiuh1LRAg12mMZT1BhKz9ku3AUBqlZoBBZrn+YiTXx3ugje3xXIXCeBdOnkzt8O9Bb3jWWoWEQED5iPT8oR1edoexDSSecWa8vJoYdv5MS1aVQLCu0NLW0g6vu8PYdmjas8UaGIxj6qA7jG1IFwh3GNtA8+Hsun5b4fj2QCym7cicFa5uhqO9YW9rJe9BINTL68LYVhTTyzJ2RAhLgZRadJ8gQxTbK/VRvhLJN7Xynty6JxBP+cU2pXk0Y4iJcK8kEOB5RiO2gO1jM7wqd8gVkhVtTbRWL6VAADTBDXNIvtcCOj5INWJILcirXx3Ls3H7rQtXv5v9GED8uNiGWp3xCC312RyMOXL1IpBVreZBqvVw1mmFPPZcgeQp1sPfMkQxGdXHbgSyTl47mUHiofbrMs1VIoNiVX624KxArcZ6X7FRv9LSzF8tel6xiSNnvUXQSaBmQe952quF4lUeVIvIyA+Bd8UwOmn1pdVq77+1lYI7f3OlSyG/5KygTpkaSjPOqtZ6daaI6qr0f5p6Fciq3PerPE7LrL+4hXPz4CcS2HEEdsCD1B3HlA3uIwIUqI8Gm10NnwAFCp8pa+wjAhSojwabXQ2fAAUKnylr7CMCFKiPBptdDZ8ABQqfKWvsIwIUqI8Gm10NnwAFCp8pa+wjAhSojwabXQ2fwP8BRNr/7uQNJOcAAAAASUVORK5CYII=;" parent="WIyWlLk6GJQsqaUBKTNV-1" vertex="1">
          <mxGeometry x="168.97" y="440" width="122.35" height="90" as="geometry" />
        </mxCell>
        <mxCell id="pqw7fjh9GeG_KR5K5NP--37" style="edgeStyle=orthogonalEdgeStyle;rounded=0;orthogonalLoop=1;jettySize=auto;html=1;fontFamily=Helvetica;fontSize=18;fontColor=#FF3333;strokeWidth=2;" parent="WIyWlLk6GJQsqaUBKTNV-1" source="pqw7fjh9GeG_KR5K5NP--4" edge="1">
          <mxGeometry relative="1" as="geometry">
            <mxPoint x="534" y="290" as="targetPoint" />
          </mxGeometry>
        </mxCell>
        <mxCell id="pqw7fjh9GeG_KR5K5NP--4" value="" style="shape=image;verticalLabelPosition=bottom;labelBackgroundColor=#ffffff;verticalAlign=top;aspect=fixed;imageAspect=0;image=data:image/png,iVBORw0KGgoAAAANSUhEUgAAALgAAACZCAYAAACcw/BUAAAMcUlEQVR4Ae2db2xbVxnGLyAhAV9AAsl8QpH6pVKROoQg/gJqgH3I6KaFZYJ0LQpGa9NsnaosQiWrYMFaobI6KGHquqhsnZyNsnSrSkpLm/5L54wldba2SrelzVpCZ7a09fKncdIkftF1fHyvnfPa13HsOH4fS9a133vuPed9np+Pzz3nxjEIDyhQwgoYJZwbUoMCBMABQUkrAMBL2l4kB8DBQEkrAMBL2l4kB8DBQEkrAMBL2l4kB8DBQEkrAMBL2l4kB8DBQEkrAMAZez+9fw8V+3N82yGi6VkmA4RNBQA4w0Gxwz26+VWK3pliWo+wUgCAKyVStsUM+MiGl2j25nhKi/FWpwAA16lCVLzDk4daaebaLabVCKcqAMBTFYm/L8oe/IHnabr3OtNihHUKAHCdKkXag08d7WdaizCnAABnlCm2HnzihTeZliKcTgEAzqhTTICPP32EKBplWopwOgUAOKNOsQA+tvU1ik5NM61EOJMCAJxRqBgAH619maIjEaaFCDtRAIAzKi014CM/3UezQ2GmdQg7VQCAM0otKeAP7qXpSx8xLUM4GwUAOKPWUgJ+t+sK0yqEs1UAgDOKLRXgEX8P0yKEF6IAAGdUWwrA7+w8zrQG4YUqAMAZ5QoN+Fjj67j1lfEilzAAZ9QrJOCjG9soOjbJtAThXBQA4Ix6hQJ85JEXafbjUaYVCOeqAABnFCwI4Oatr1eGmRYgvBgKAHBGxbwD/sAe3PrKaL+YYQDOqOn7xVP03C9/S/s3/Z4ObfkTnW7cSxea/PTR1lcovG5fzn8QMfnGu0zNCC+mAgCcUfPb311D6Z7r1q6nvY/toN5f76dbnv1ZAT/xl7NMrQgvtgIAnFE0Hdy6fVsfqqPAlj1065H0vfv49sO49ZXRPB9hAM6oqoPYaWznhm10beNf5/XqY0/8naIR3PrKSJ6XMABnZHUKc7pyW37sofcfbY2BHrv1NTzB1IZwvhQA4Iyy6cDNdt+m+2opdH6AqQnhfCoAwBl1s4U4Xfme3iBTC8L5VgCAMwqnAzabff88eoKpAeFCKADAGZWzgZgr+7L/b9qz/29qksrPn6OL41ii1wq0iEEAzojJQes0/uwfn9OeeXxmhr759mkyTh2mL545Qm8Mh7TlEFwcBQA4o6NTkHXlmrb/jjkr0b3vvhWD2wRcPbcPvseWx47cFADgjH46cJ3ENtZtZc5I9PPLfQmoFdxqu64/SHej+ClkVrwF7gDgjHBOYE4tU1W9nm7e1P8w5jPXB1i4FeTf7wvQ6AwWghhLFhQG4IxsqfBmev+9NffR5fc+0J7t4HAoI9wKcvf5czQ5i55cK+QCggCcES0T0Kn7u851a8/UPXKbPn+6wzHgJug/udSrPReC2SsAwBnNUgFO9/71Qx3aswxMjNNXuo5mBbfqyXHhqZU06yAAZyRLB7R93wutL2nPMHx3ir7RfWJBcCvIj936RHtuBJ0rAMAZrewQc693/GGX9uiJ2Rn6Vu/ZnOA2If/auWP0yV38Hx6tyA6DAJwRioNaxRsan9IeORuNUuWFf+cMt+rFzXlzPBauAABntFMg67YbajfR5KT+Zx42f3Bx0eBWkL8YGmJaiXAmBQA4o5AObDNWufZhGhq6oT3q2aHBRYdbDVXuzMxo60QwvQIAnNFHB/h33D+gvncuaI/ouPkxffbUP/ICuAn5tquXtfUimF4BAM7oowP8+InT2tI9o2H6wpkjeYNbDVX+M4m/CNIakCYIwBlxUgF/5dXXtCWvRSboq+eO5R1uE/JH38dPTWhNSBME4Iw4dsD/3LJXW+r29F1a8dbJgsBtAm6uiN6YxL800ZrBBAE4I4wC/DdP79CWmJqdjf3Rgho+FGr7xMAlbXsQ1CsAwPW6xH70Z/NjTzJ7iaov9Ras57Z/eMyxPu44ZG2ZtwOAz5NkLvDwz2opHP5Uu/dXV/uXBG4FOubFtbZogwBcKwvRwJWr2j0mXAq0pdr+8B39nYvaBgsPAvAsADh+e5g+dzp/c91OPzCfOXWYzD9cxiOzAgA8s0axEhfGR+lLZ/M/1+0U8udvXHfYctnFALgD//87GaGvv/mvJR+a2OE3L3LxyKwAAM+gkXnr6+qeM0UFtwn6l7uOUjRD27GbCIBnoOD+i28XHdyqJz8/qp/lyZCSqN0AXJTd8pIF4PI8F5UxABdlt7xkAbg8z0VlDMBF2S0vWQAuz3NRGQNwUXbLSxaAy/NcVMYAXJTd8pIF4PI8F5UxABdlt7xkAbg8z0VlDMBF2S0vWQAuz3NRGQNwUXbLSxaAy/NcVMYAXJTd8pIF4PI8F5UxABdlt7xkAbg8z0VlDMBF2S0vWQAuz3NRGQNwUXbLSxaAy/NcVMYAXJTd8pIF4PI8F5UxABdlt7xkAbg8z0VlDMBF2S0vWQAuz3NRGQNwUXbLSxaAy/NcVMYAXJTd8pIF4PI8F5UxABdlt7xkAbg8z0VlDMBF2S0vWQAuz3NRGQNwUXbLSxaAy/NcVMYAXJTd8pIF4PI8F5UxABdlt7xkAbg8z0VlDMBF2S0vWQAuz3NRGQNwUXbLSxaAy/NcVMYAXJTd8pIF4PI8F5UxABdlt7xkAbg8z0VlDMBF2S0vWQAuz3NRGQNwUXbLSxaAy/NcVMYAXJTd8pIF4PI8F5UxABdlt7xkAbg8z0VlLBvwbi8ZhjH3rPZTSGf9h36qccXLGAa5mwMUiZULkb9axavIPxQ/eMhPVeqchpcCunMiVjAFALiCUQf4WIC85Qpig1zr/TSYsAaAJ6Qo4hcAnAV8kPzrXVYPX+6lwJjdyTAF9vnIt9N8tlIgHN+HHtwu0pK/BuBawCMUaHZbcLtqyP+hQ68AuEOhClMMgGsAH2yrIZeKG27yds+Nuh1ZAsAdyVSoQgBcgRwfg0e6veRWMcNFNW3WqDvZFIdj8OlB6mj2kHvF3Fi+rLyK6nd3Umg6+WyJd+F+am/2UMUqNTwqI3d1PbWcTL0EttdvXsyGKbC7nirjx7lWVVL9bjOqf4ROtlB9tZvK4rm6VlWQp7md+rkD9Kcp+igAVzCbgI8FqGm1uqh0Uc1+Dm7TVztg3CxKFdXYx/GqLsMg15rUMT1RpM9HlbYZm8QMT+w4F1XsDMZncObXz9VjzfooFgep43Hb8MvWplh9KzzUrmaE1CHLeAvAlcEPNpHXBuN8MFJddgL43Icl1js2NiX1mCZMrroOq4eNBMib+HAZFOvptzeQZ81K23CpkloHVDvs9cc/lCvc5GlsIE95mXX9YNxDvj51DFGorcra51pJFbUN1FRXlfiGibVrW6ftg2QduxxfAXAFeNI23dBE2WwHjOvB5+bN7d/6kcuttnl1G3zD/dR5snPu2T2YBFjwmXsSUNYcUEMVe/3xKczEsGfQNkdvUFWbOiZCoZ54HSc7qX9Y5WJ+IbWTR2ng8lLQtms5vwTgytSUHtzIeHFpB4wDvIE6NdenwZ0WsBV7U4ZBJuhtLfHpRx/59nVQ526r17VgtdfvIm93Mob2nto6RpWJUKivnVpjU5zmNGcL+bv91KS0KKEFKgCuTI2Pwe0LO0ba6UE7YAzgusUjk7GupkSPbDRba52DBzyJi77k8be6LrD3xkz9cYZZwM3FqzXqAtY6b3J9pbMCC8DtgJtwpCzNG/MWeFQvyABmnybMBvA+n232hgMvV8DD1FGXCW6zbgCuXF7eW+ZelOSpwtQlepWyA8AN50OU4C5r2OLe1kEhNbSZjlDoYH2ix7eGG0z98eZpe/BwB9WrD7Srhlr7rKuDSDhILT9SHywArlxe3lsGcDOp5MUe+01WKmUGMHsPHr85y8KIKHK5xXYzlnWRGWhWcBnkOZh0BAV3VS4O4Pa2rfYlX0gOt1N9YooSgCuXl/c2DeBEKcv18xZ9nAEem3YzF1HMacK19ik/85uhPXEHY/igJwGxYZSRu7aBfI32BZ+5D0BOPTgFyWebiowtBm2fP32JIcryxtpqfVrAzWIpN1wlzaw4APxxb9LdiEkXcqlj+0iQLesutxZmcgOcKHTAfhuC9a1huNzkTsCPHtyCZDm/ygg4EaXcMmvNrDgA3JwhiS+9q6X6uSV0Zql+bG6ZXpUtK/eQ92A/hbus+9ZzBdy0K9zVYn2buFZSZV0LdYbsc+cAfDljjbYLUkD2NKEgo6WmCsClOi8kbwAuxGipaQJwqc4LyRuACzFaapoAXKrzQvIG4EKMlpomAJfqvJC8AbgQo6WmCcClOi8k7/8D/vUXRWRiXvAAAAAASUVORK5CYII=;" parent="WIyWlLk6GJQsqaUBKTNV-1" vertex="1">
          <mxGeometry x="85.14" y="160" width="132.29" height="110" as="geometry" />
        </mxCell>
        <mxCell id="pqw7fjh9GeG_KR5K5NP--5" value="" style="shape=image;verticalLabelPosition=bottom;labelBackgroundColor=#ffffff;verticalAlign=top;aspect=fixed;imageAspect=0;image=data:image/png,iVBORw0KGgoAAAANSUhEUgAAANAAAACZCAYAAABe87TQAAAPCElEQVR4Ae2bb2wbZx3HT+IdL+ANEveCIWX0TaXCWjFELDFBwjpY0IYUFpAiKhT8AgVrCClkaJgiVFl70ZkyIlMEsyIBcpEqHMHAHYI5g5U5FW2djWxpt6zO2tC6rBpm/WekSf6is/3cPXfJ48e+uySX+hspvdjPn3uez/N87nnud1cD/CEBEvBNwPBdkgVJgARAgTgJSCAAAQoUAB6LkgAF4hwggQAEKFAAeCxKAhSIc4AEAhCgQAHgsSgJUCDOARIIQIACBYDHoiRAgTgHSCAAAQoUAF6oRd9ZAC5n0Hh9Eo1/fh6N0x9D48UPtH4X7kLjzF40XvkScOExoDoLXD8d6ulZmT8CFMgft3BKvX0Cjde+gcapAUcWIU2XRyyPoXH5p8DtlXDaxFp6IkCBesIVRuYGcPkoGmfv9S2NvTJ5JXt5PxpXng6jkayjSwIUqEtQoWS7+kvgzD3hi+MVafE+oDYfSpNZSWcCFKgzn3BSby0371+UK4dXgLA+V5LhtJ+1KAlQICWakBKu/nrzV5xOwr28H7i5FFJnWI2XAAXyEgnxc2P1h9srjyQWrs2F2DNWJQhQIEEi5GNj5VuRkcfeOl7OhNxLVkeBNmEORFIesRpdfGITety/VVKgkMe+8WZ0tm32yiPkEceLqZB73b/VUaAQx76x3QEDIUin45l7gPqbIfa6v6uiQGGN/61zaJQ+GL37HkkmnP0431gIa7zb9VCgkIA2Xn0k0vI036P731pIvWU1ggAFEiQCHCO9dbNeTH3rtwF6x6KdCFCgTnS6TduK13OkrZgyOGDlOXU3GksPo2FF266f6bYHzOeTAAXyCY7FSMAiQIE4D0ggAAEKFAAei5IABeIcIIEABChQAHgsSgIUyOccOP/aCu795NC2/372gS/iO48dxIln/+yzJywWhAAF8knv98+c2HZ5vALf95kRzD9/0mePWMwPAQrkhxqAp37ys8gJJISiRD4H1UcxCuQDmlXkkS9/LbICWSsRf7aGAAXyyfkLD38lsgJZKxHviXwObI/FKFCPwET2ofsfjrRA09/9gWgqj5tIgAL5hBv71AORFsiKzvFn8wlQIJ+MKZBPcHdYMQrkc0CjvoWzng3xZ/MJUCCfjBlE8AnuDitGgXwOKMPYPsHdYcUokM8B/fFTRyMbROCDVJ+D6qMYBfIBzSrCV3l8grvDilEgnwMapZdJrWc+fHDqcyADFqNAAQGyeH8ToED9Pf7sfUACFCggQBbvbwIUqL/Hn70PSIACBQTI4v1NgAKFMP53LTwH4/k/ROL3/S88i0+XX8T3K+dx6p3/hNA7VtGJAAXqRKfLtKevXIyEPBtJPHj278hd/VeXPWG2XglQoF6JKfJ/7uVTkZXIEuv+lxZwsX5b0Xp+7ZcABfJLzlPulZvX8Z7n/xhpie4+VcT5Wzc9LefHIAQoUBB6nrLZK5ciLZC1Et1Veg4Xbt/ytJwf/RKgQH7JKcpNv7EceYm+d+GcovX8ulcCFKhXYl3k//q5lyIrkRWd4094BChQeCxdNUVRoicvveFqIz8EJ0CBgjNU1hCl7dxv/n1Z2U4m+CdAgfyz66rkdj8j+sSZk1i88U5XbWWm3glQoN6Z9Vxi6eb15nOYjR50buZ33155pee2skBvBChQb7wC5f75lYvYitd+PvqPv+JPb78VqK0s3B0BCtQdp9ByNQD8aO0CPnKqGHqkztquzaxVQmsrK9IToEB6RpuW43fXrmL81TLed/JZ3zJZrxClL13A+dt8w2DTBqpDxRSoA5ytTHrhv2/jyUsX8NXlMqwXQD9U+ost1Xv/dgIfXniueR/1zdeXcPTym1jgm9ZbOTzKc1EgJRomkICeAAXSM2IOElASoEBKNEwgAT0BCqRnxBwkoCRAgZRomEACegIUSM+IOUhASYACKdEwgQT0BCiQnhFzkICSAAVSomECCegJUCA9I+YgASUBCqREwwQS0BOgQHpGzEECSgIUSImGCSSgJ0CB9IyYgwSUBCiQEg0TSEBPgALpGTEHCSgJUCAlGiaQgJ4ABdIzYg4SUBKgQEo0TCABPQEKpGfEHCSgJECBlGiYQAJ6AhRIz4g5SEBJgAIp0TCBBPQEKJCeEXOQgJIABVKiYQIJ6AlQID0j5iABJQEKpETDBBLQE6BAekbMQQJKAhRIiYYJJKAnQIH0jJiDBJQEKJASDRNIQE+AAukZMQcJKAlQICUaJpCAngAF0jNiDhJQEqBASjRMIAE9AQqkZ8QcJKAkQIGUaJhAAnoCFEjPiDlIQEmAAinRMIEE9AQokJ4Rc5CAkgAFUqJhAgnoCVAgPSPmIAElAQqkRMMEEtAToEB6RsxBAkoCFEiJhgkkoCdAgfSMmIMElAQokBINE0hAT4AC6RkxBwkoCVAgJRomkICeAAXSM2IOElASoEBKNEwgAT0BCqRnxBwkoCRAgZRomEACegIUSM+IOUhASYACKdEwgQT0BCiQnhFzkICSAAVSomECCegJUCA9I+YgASUBCqREwwQS0BOgQHpGzEECSgI7QKAqcmMGDKO739FjVbuzpUNOmdSC/fX2/rGWw6joy1gOTmu3t1nRPLs89qPIrUWvlRRoM8bkRg2VxSLys1mUap4TUCAPkE4fKVAnOl2myRANjEymkT6s/s0uODN2e1Ygub0bXDVrJWRF+2dLcFrbJY6+yqZhGQEWO24F6mUrFkmBIjDoO6cJFCiEsZIhGqBAISDdMVXIY7/Bah6BfvT1ClSdzyAxFsNA+6be3DOM+KE8ljfcV9VQnp3C6OBAO6AxgNhYApl5EQaQB9sJXjjBj/YE0N4D1bA8l0J8aDfMdrsGBkeRmCmi+u76GVNfLSA9MYzdZuucnfsA1JbySLnyjyBxWNVnAO9WUZxJSP02sXsojtTc8rrtp7PijyK3WsPysSmM7LLa5Zn8XdcpM7XqqLfYtMfA3DOCxMz2boP7VKAKCo/G1JG9XXHkXRGfCnIHTEV+EyNHyqhDHmyfAt0oITWkOo8BYzCBwqojUX0hhZiI6HmPnrxAHeUjI7aUjtjttpojSC/Wncqtv1YLSAxu1JfWdwMTeVcUURYoMSnzlQRazSPelGrjes2H0ijfEM2QmQ5j/IBcp1M+dqgET8tFBZt+3HECrRv49sSRw9eCmjOg7q1f9dioI4O5G8MTU0hOjiImDaz5eNEelPp8Upp4A4hNTGFqwlm5DCOG9GINpVkruJHE+F4xuPsw/rgIeLQjcsoVyCOpuRsjk0kkJ0fs1aXZdzv0XUH2QXEeA82r8XQCI3scAc3Jgr1K1J5JuPswlkDyoLyyGDDMKRQ3nLxW/cOITyddK7ZhmEjOO1NX5t0aJxO7H0ogOZ1qXZCsC4Qs5K4Y4tNpD0sD+2whZIHafW2WmULc3glY348guyJGfWuPfShQHdXTRRTnW7/L1yTg1Tzi4kpuplBuJ8nCDR9dtgvU51MYnUwic6yA8pqYSPKgS1deUUohkEvSwZQ7/O2aePuQXrQqKyEl2mokULAnfgW5iTimDmeRnxfbrDLSQuq9UyjIfQZQm09iX7uu2Ey7f/Uqym1GRbueVieqx+P2Bch8QlAC3AKNInNOMGmVq8yOOOUO5FCRt6SrOYy3t6GGEUe+2UaZpQHTVabiej640QVUIN/M444TSBXGlsPXApg8oOuDD3VUF/NOSPlwBrmFHJL2pEyhJCpaSNlXb/NABqVV98QQ2VpHedC7F6j8hLNyxOfW34TVV8tYrtZQs0WRzxND0ronUTXrtNN+48HE+scAh+IYFv3en0VF7pAl0lzWKTOTQ+lY0hbBOGRTcglkSt8LLvkDYsUUFwH5RNb9WRmVWk3qh9xHc10ASb6wUSA3S+mTDNG9FZMybfinUiDdvUZzMkkCoYbiwWFboub2xNr6jSWQPlby3NzL7e1WoCqcyTXc9XakvpJbdz8xMGhttbIorDgSVo+POxNeiKI8Ov227rGG7VVBTH7PURJF5j1+XARXxNCUkbLrmkJRJbvI3jx2ZkmBXLBUH2SIYQhUQ2HSudqr7qkMw5lIomX1tTLys9Z9gBP1apa3tlwbrgybK1CzXe/WsDyfQ2Y6jmHXfYGJ8WOttcSXQNcKSNgT3iONLJ9CoPUrPgUS82iLjyELVCsgISaAOY7sonOlrtfKyOwXk2W9QO6O17F81NnTj/5KbHzk9nYrEKDdwlUrqNqSulvi+nStgCl74idb21B5C/dowQ6OuMp5PlhBB3FxMQ9kUbbvm+qonc44W76uBZJXWcUWbq0ibd+sBnVmyRXIM2gbf5QhhrACyTfxe9N2oKB57mt56aorBKqieNSKFA1jeCiJguMbanPOzbRzL+Bub+KEZ68in9+OqAGQ7rOMvUkUpfOgVkSyHQQw97RD7Et5pK0o2v5hjP/CCWwAUsDAfv4ifxdD8oRne7WaQ2JiCtm5EkRQRZ6c+w47gQKLU21Oiuh1LRAg12mMZT1BhKz9ku3AUBqlZoBBZrn+YiTXx3ugje3xXIXCeBdOnkzt8O9Bb3jWWoWEQED5iPT8oR1edoexDSSecWa8vJoYdv5MS1aVQLCu0NLW0g6vu8PYdmjas8UaGIxj6qA7jG1IFwh3GNtA8+Hsun5b4fj2QCym7cicFa5uhqO9YW9rJe9BINTL68LYVhTTyzJ2RAhLgZRadJ8gQxTbK/VRvhLJN7Xynty6JxBP+cU2pXk0Y4iJcK8kEOB5RiO2gO1jM7wqd8gVkhVtTbRWL6VAADTBDXNIvtcCOj5INWJILcirXx3Ls3H7rQtXv5v9GED8uNiGWp3xCC312RyMOXL1IpBVreZBqvVw1mmFPPZcgeQp1sPfMkQxGdXHbgSyTl47mUHiofbrMs1VIoNiVX624KxArcZ6X7FRv9LSzF8tel6xiSNnvUXQSaBmQe952quF4lUeVIvIyA+Bd8UwOmn1pdVq77+1lYI7f3OlSyG/5KygTpkaSjPOqtZ6daaI6qr0f5p6Fciq3PerPE7LrL+4hXPz4CcS2HEEdsCD1B3HlA3uIwIUqI8Gm10NnwAFCp8pa+wjAhSojwabXQ2fAAUKnylr7CMCFKiPBptdDZ8ABQqfKWvsIwIUqI8Gm10NnwAFCp8pa+wjAhSojwabXQ2fwP8BRNr/7uQNJOcAAAAASUVORK5CYII=;" parent="WIyWlLk6GJQsqaUBKTNV-1" vertex="1">
          <mxGeometry x="544" y="360" width="149.53" height="110" as="geometry" />
        </mxCell>
        <mxCell id="pqw7fjh9GeG_KR5K5NP--13" value="&lt;font style=&quot;font-size: 18px;&quot;&gt;monitor cluster&lt;/font&gt;" style="text;html=1;align=center;verticalAlign=middle;whiteSpace=wrap;rounded=0;fontSize=18;fontFamily=Helvetica;fontStyle=1;fontColor=#FF3333;" parent="WIyWlLk6GJQsqaUBKTNV-1" vertex="1">
          <mxGeometry x="484" y="470" width="286.67" height="43" as="geometry" />
        </mxCell>
        <mxCell id="pqw7fjh9GeG_KR5K5NP--36" value="&lt;font style=&quot;font-size: 18px&quot;&gt;product cluster&lt;/font&gt;" style="text;html=1;align=center;verticalAlign=middle;whiteSpace=wrap;rounded=0;fontSize=18;fontFamily=Helvetica;fontStyle=1;fontColor=#FF3333;" parent="WIyWlLk6GJQsqaUBKTNV-1" vertex="1">
          <mxGeometry x="88.47000000000003" y="527" width="286.67" height="43" as="geometry" />
        </mxCell>
        <mxCell id="pqw7fjh9GeG_KR5K5NP--38" value="" style="shape=image;verticalLabelPosition=bottom;labelBackgroundColor=#ffffff;verticalAlign=top;aspect=fixed;imageAspect=0;image=data:image/png,iVBORw0KGgoAAAANSUhEUgAAANYAAACbCAYAAAAeJWWcAAALpUlEQVR4Ae2c0WtjWR3H80cMGJ/WwoAUBtwBd22epF0WpDgPBipstcKQ9aGEFTGKLmFgGeM+zIZ9GMo8SHeEkfZhofOw0idpfRgmHbaajoJdnR1bYcQIAwZc2SAD+clJc+89Nzm3OWlv2v6ST6E0uTm5v18+3/OZe+9JMhnhBwIQSJ1AJvU9skMIQEAQi0kAgREQQKwRQGWXEEAs5gAERkAAsUYAlV1CALGYAxAYAQHEGgFUdgkBxGIOQGAEBBBrBFDZJQQQizkAgREQQKwRQGWXEEAsjznQfnhJwt9HX5L2H16R9p+/Le2//1zk378VkbbHXhgySQQQyyPtUCpbMPv2zkvSfvojkf8+9tgbQyaBAGJ5pDxQLEsyebIs0jr02CtDxpkAYnmkO4xYnbG1L4o0PvDYM0PGlQBieSQ7tFjBEcycHvIzkQQQyyP2E4v18JLIX77nUYEh40YAsTwSPY1Y5rnyCXJ5YB6rIYjlEedpxeo8/28/9qjEkHEhgFgeSaYiljly/eueRzWGjAMBxPJIMS2x2o9eEvnfPz0qMkQ7AcTySDA1scxqISuFHsT1D0EsjwxTFcucEn7+1KMqQzQTQCyP9NIWq334jkdVhmgmgFge6aUu1u5XPKoyRDMBxPJIL3WxzLXWfz72qMwQrQQQyyO5kYj1j9selRmilQBieSQ3ErH++qZHZYZoJYBYHsmNRKzHsx6VGaKVAGJ5JDcSsT7+skdlhmglgFgeyY1ErIdf8KjMEK0EEMsjudGIdcmjMkO0EkAsj+QQywMSQ2IEECuGw30Hsdxc2JpMALGS2YSPIFaIghueBBDLAxRieUBiSIwAYsVwuO8glpsLW5MJIFYym/ARxApRcMOTAGJ5gEIsD0gMiRFArBgO9x3EcnNhazIBxEpmEz6CWCEKbngSQCwPUIjlAYkhMQKIFcPhvoNYbi5sTSaAWMlswkcQK0TBDU8CiOUBCrE8IDEkRgCxYjjcd17NvSZf/dps6r+uapnf/UbS+nXtn21nQwCxPDi//o1vpS6VEdX1k5ZUZj/8nB8BxPJg/8Z330QsD04MiQggVsQi8dZP334HsRLp8ICLAGK5qPRsW717D7F6mHD3eAKIdTyfzqO7v99DLA9ODIkIIFbE4thbs69dS10uV0EWL1xU9G1DLM/MKr94D7E8WTFMBLE8Z8He4z8hlicrhiHWUHPgBz/8WapyuYpzKuiiom8bR6whMqvX/4hYQ/Ca5KGINWT671VvpyaXqzRHLBcVfdsQa8jM2u22fGfp+6nI5SqNWC4q+rYh1gkye/LkqXx97punlstVGrFcVPRtQ6wTZrbzaFdezc2dSi5XacRyUdG3DbFOkZmR6zRHLldpxHJR0bcNsU6ZmTktPOk1l6s0Yrmo6NuGWClkZhY0TrJa6CqNWC4q+rYhVoqZmfe5hnkT2VUasVxU9G1DrBFkZj7+ZD5bOOiDu67SiOWiom8bYo04M/OVkw9+9WsxX5Y030Q2X/MP/g8NV2nEclHRtw2x9GVGxwoIIJaCkGhRHwHE0pcZHSsggFgKQqJFfQQQS19mdKyAAGIpCIkW9RFALH2Z0bECAoilICRa1EcAsfRlRscKCCCWgpBoUR8BxNKXGR0rIIBYCkKiRX0EEEtfZnSsgABiKQiJFvURQCx9mdGxAgKIpSAkWtRHALH0ZUbHCgggloKQaFEfAcTSlxkdKyCAWApCokV9BBBLX2Z0rIAAYikIiRb1EUAsfZnRsQICiKUgJFrURwCx9GVGxwoIIJaCkGhRHwHE0pcZHSsggFgKQqJFfQQQS19mdKyAAGIpCIkW9RFALH2Z0bECAoilICRa1EcAsfRlRscKCCCWgpBoUR8BxNKXGR0rIIBYCkKiRX0EEEtfZnSsgABiKQiJFvURQCx9mdGxAgKIpSAkWtRHALH0ZUbHCgggloKQaFEfAcTSlxkdKyCAWApCokV9BBBLX2Z0rIAAYikIiRb1EUAsfZnRsQICiKUgJFrURwCx9GVGxwoIIJaCkGhRHwHE0pcZHSsggFgKQqJFfQQQS19mdKyAAGIpCIkW9RFALH2Z0bECAoilICRa1EcAsfRlRscKCCCWgpBoUR8BxNKXGR0rIDAZYj1bk3wmI5nOb0VqCoK5kC3uVLoMM5K5CcXjMkKs4+hcxMdetKR5WJet+6uyutM82w4Ry5s3YnmjuhgDG+v58KiRX2+cbVOI5c0bsbxRXYyBiHUxchjUBWINInTBHkesCxZIQjuIlQCms/lFU+r3K1KYnZZsd/FjaiYvxdubcnDM5U1je0WK14LnTEnuelVqzw9kbSFYQMnL2jO7cFPqd0uSn5nqnuZNSW6hKCvb0ameLdTRIkywr6O/vaeFnR4WcjLV7Tt7ZU4KNzdk39n34PqdbntPBZ/XZGV5XqazpgfzOiuy8UnLfmETexuxkqI/3JTSbDa8numbzNl5qe71TqKW1G7m3M/J5iT3ciCDLdaBrC0l1cnK/Pt1MVX8xTqQzbcSejCSXS7IRkxqv/p9Yi0symJHqOA1df9mF2XtMAnq5GxHLFfWrbpUZqwJk52WueslKS/nJXfZ3r4Ym6TNj4rhkc2IODVTkNKNosxf6RUnEqu1XbaeY/7VL0npenSkyWRyUt0Tae6sSvVWVcpLV0Nxry6VO9vM9mCFMCZgQt/Zt7c6spqX7lu/g8k+YnWOhFmZvlaUUnjUOmJj79+FdxK2IZYj5YO78+HkzcxUpGafPr2I/wsfTaK6VMMjUlYW7x1Ye+49kkVi2SLM3dkPn9Parkh+uSwr65tSfxYdGe3xvad/Ii1p7G7J1vbR7/7zcHcijQ0pdE8LM9mK1LsP2fsbWD8mVk4qDyIwrQdluRrsP8N7hYhlzb2jmw3ZWAqOSlc7R4u+IZ+uynwwiYJJemi9Cf1yNZy44XNbW1IOT50isWSnEh6xsksrUjuMJAqfa92wRegXKxjYksbehqzeqnaPaCuytrMm5aBne+IPU98Wa2FNoitAU7cmFdf+g5Ym7C9i9QVel0ooQEm2nPPcnkSLsmFmmD3pbrg+ldBIWLxoytaNuVCuzrWcOYVbKEp1vSaNF/EGB4r1WU0qx10bdia/fUQZor79Gvs+eWEzsfcf739S7iFWX9JnLdZRA61nddm4W5biwlx3la171DSnop9FTR4vVlM2l3uv54Kjr/23f+J71UesKIgBtxCrD9AZnwr21TcbWrJ/J7rOy1vXa8eK1dyUYnA6ll2U1T3rGqhZl5XXA7n6xYq3kVAfseKYjrmHWA44qSxe/HI/XHkTafYswwfXWA3ZulOV0vU5mZsty2bkgTTvF6IFFOu0yxYr89amVUNE7A8b917nPd+QYniKG4g1ZH3EcswW96YJFCv4V9v1tzvhz3C5vf6+9Z5Tdlrml8s9y+0ZKX5kGbcbLXZkMkfL3eWfFGRl1wRsr0xmJHtlXoo3zOmlvXxvXncglshQ9RHLbZFjK2IFp06dv8GRREQGvUF8uSCrfZ8yaEnt3Z6FiGD/M4uyGJ6KWXUkvnzf+0Z0dmlN7IV7SRgfyNf4cDG+EBLUj71BHYmVtL+gj1h9xHIo5N6EWMHE6xXL8ErjI02do9Cq1Jv2R5p6Vxubsh/76FRWpmcLUrm/L9axKkrwRUO2bhVkLnjjOTsthfVIv+YD6yNVnforstWw69timd161kesKIMBtyZDrAEQzubhWvQ+Uu/1z9k0QJUzJIBYqcFuyv62eVPWXNPkpWp9KsGUOFiPTtGiT2ukVpwdXTACiJVaIC2pv2stRJiFhdmClG6VpBB+at0sHBx99i+1suzoQhJArFRjOZCN68FXP1yrjlNS+DC6Fkq1NDu7UAQQawRxNLZXO+9NHX1PyXxVIyf55RXZ/NS5FDGCDtjleRNArPNOgPpjSQCxxjJWXtR5E0Cs806A+mNJALHGMlZe1HkTQKzzToD6Y0kAscYyVl7UeRNArPNOgPpjSeD/D3FrvPx+8agAAAAASUVORK5CYII=;" parent="WIyWlLk6GJQsqaUBKTNV-1" vertex="1">
          <mxGeometry x="85.14" y="585" width="144.97" height="105" as="geometry" />
        </mxCell>
        <mxCell id="pqw7fjh9GeG_KR5K5NP--39" value="" style="shape=image;verticalLabelPosition=bottom;labelBackgroundColor=#ffffff;verticalAlign=top;aspect=fixed;imageAspect=0;image=data:image/png,iVBORw0KGgoAAAANSUhEUgAAALgAAACZCAYAAACcw/BUAAAMcUlEQVR4Ae2db2xbVxnGLyAhAV9AAsl8QpH6pVKROoQg/gJqgH3I6KaFZYJ0LQpGa9NsnaosQiWrYMFaobI6KGHquqhsnZyNsnSrSkpLm/5L54wldba2SrelzVpCZ7a09fKncdIkftF1fHyvnfPa13HsOH4fS9a133vuPed9np+Pzz3nxjEIDyhQwgoYJZwbUoMCBMABQUkrAMBL2l4kB8DBQEkrAMBL2l4kB8DBQEkrAMBL2l4kB8DBQEkrAMBL2l4kB8DBQEkrAMAZez+9fw8V+3N82yGi6VkmA4RNBQA4w0Gxwz26+VWK3pliWo+wUgCAKyVStsUM+MiGl2j25nhKi/FWpwAA16lCVLzDk4daaebaLabVCKcqAMBTFYm/L8oe/IHnabr3OtNihHUKAHCdKkXag08d7WdaizCnAABnlCm2HnzihTeZliKcTgEAzqhTTICPP32EKBplWopwOgUAOKNOsQA+tvU1ik5NM61EOJMCAJxRqBgAH619maIjEaaFCDtRAIAzKi014CM/3UezQ2GmdQg7VQCAM0otKeAP7qXpSx8xLUM4GwUAOKPWUgJ+t+sK0yqEs1UAgDOKLRXgEX8P0yKEF6IAAGdUWwrA7+w8zrQG4YUqAMAZ5QoN+Fjj67j1lfEilzAAZ9QrJOCjG9soOjbJtAThXBQA4Ix6hQJ85JEXafbjUaYVCOeqAABnFCwI4Oatr1eGmRYgvBgKAHBGxbwD/sAe3PrKaL+YYQDOqOn7xVP03C9/S/s3/Z4ObfkTnW7cSxea/PTR1lcovG5fzn8QMfnGu0zNCC+mAgCcUfPb311D6Z7r1q6nvY/toN5f76dbnv1ZAT/xl7NMrQgvtgIAnFE0Hdy6fVsfqqPAlj1065H0vfv49sO49ZXRPB9hAM6oqoPYaWznhm10beNf5/XqY0/8naIR3PrKSJ6XMABnZHUKc7pyW37sofcfbY2BHrv1NTzB1IZwvhQA4Iyy6cDNdt+m+2opdH6AqQnhfCoAwBl1s4U4Xfme3iBTC8L5VgCAMwqnAzabff88eoKpAeFCKADAGZWzgZgr+7L/b9qz/29qksrPn6OL41ii1wq0iEEAzojJQes0/uwfn9OeeXxmhr759mkyTh2mL545Qm8Mh7TlEFwcBQA4o6NTkHXlmrb/jjkr0b3vvhWD2wRcPbcPvseWx47cFADgjH46cJ3ENtZtZc5I9PPLfQmoFdxqu64/SHej+ClkVrwF7gDgjHBOYE4tU1W9nm7e1P8w5jPXB1i4FeTf7wvQ6AwWghhLFhQG4IxsqfBmev+9NffR5fc+0J7t4HAoI9wKcvf5czQ5i55cK+QCggCcES0T0Kn7u851a8/UPXKbPn+6wzHgJug/udSrPReC2SsAwBnNUgFO9/71Qx3aswxMjNNXuo5mBbfqyXHhqZU06yAAZyRLB7R93wutL2nPMHx3ir7RfWJBcCvIj936RHtuBJ0rAMAZrewQc693/GGX9uiJ2Rn6Vu/ZnOA2If/auWP0yV38Hx6tyA6DAJwRioNaxRsan9IeORuNUuWFf+cMt+rFzXlzPBauAABntFMg67YbajfR5KT+Zx42f3Bx0eBWkL8YGmJaiXAmBQA4o5AObDNWufZhGhq6oT3q2aHBRYdbDVXuzMxo60QwvQIAnNFHB/h33D+gvncuaI/ouPkxffbUP/ICuAn5tquXtfUimF4BAM7oowP8+InT2tI9o2H6wpkjeYNbDVX+M4m/CNIakCYIwBlxUgF/5dXXtCWvRSboq+eO5R1uE/JH38dPTWhNSBME4Iw4dsD/3LJXW+r29F1a8dbJgsBtAm6uiN6YxL800ZrBBAE4I4wC/DdP79CWmJqdjf3Rgho+FGr7xMAlbXsQ1CsAwPW6xH70Z/NjTzJ7iaov9Ras57Z/eMyxPu44ZG2ZtwOAz5NkLvDwz2opHP5Uu/dXV/uXBG4FOubFtbZogwBcKwvRwJWr2j0mXAq0pdr+8B39nYvaBgsPAvAsADh+e5g+dzp/c91OPzCfOXWYzD9cxiOzAgA8s0axEhfGR+lLZ/M/1+0U8udvXHfYctnFALgD//87GaGvv/mvJR+a2OE3L3LxyKwAAM+gkXnr6+qeM0UFtwn6l7uOUjRD27GbCIBnoOD+i28XHdyqJz8/qp/lyZCSqN0AXJTd8pIF4PI8F5UxABdlt7xkAbg8z0VlDMBF2S0vWQAuz3NRGQNwUXbLSxaAy/NcVMYAXJTd8pIF4PI8F5UxABdlt7xkAbg8z0VlDMBF2S0vWQAuz3NRGQNwUXbLSxaAy/NcVMYAXJTd8pIF4PI8F5UxABdlt7xkAbg8z0VlDMBF2S0vWQAuz3NRGQNwUXbLSxaAy/NcVMYAXJTd8pIF4PI8F5UxABdlt7xkAbg8z0VlDMBF2S0vWQAuz3NRGQNwUXbLSxaAy/NcVMYAXJTd8pIF4PI8F5UxABdlt7xkAbg8z0VlDMBF2S0vWQAuz3NRGQNwUXbLSxaAy/NcVMYAXJTd8pIF4PI8F5UxABdlt7xkAbg8z0VlDMBF2S0vWQAuz3NRGQNwUXbLSxaAy/NcVMYAXJTd8pIF4PI8F5UxABdlt7xkAbg8z0VlDMBF2S0vWQAuz3NRGQNwUXbLSxaAy/NcVMYAXJTd8pIF4PI8F5UxABdlt7xkAbg8z0VlLBvwbi8ZhjH3rPZTSGf9h36qccXLGAa5mwMUiZULkb9axavIPxQ/eMhPVeqchpcCunMiVjAFALiCUQf4WIC85Qpig1zr/TSYsAaAJ6Qo4hcAnAV8kPzrXVYPX+6lwJjdyTAF9vnIt9N8tlIgHN+HHtwu0pK/BuBawCMUaHZbcLtqyP+hQ68AuEOhClMMgGsAH2yrIZeKG27yds+Nuh1ZAsAdyVSoQgBcgRwfg0e6veRWMcNFNW3WqDvZFIdj8OlB6mj2kHvF3Fi+rLyK6nd3Umg6+WyJd+F+am/2UMUqNTwqI3d1PbWcTL0EttdvXsyGKbC7nirjx7lWVVL9bjOqf4ROtlB9tZvK4rm6VlWQp7md+rkD9Kcp+igAVzCbgI8FqGm1uqh0Uc1+Dm7TVztg3CxKFdXYx/GqLsMg15rUMT1RpM9HlbYZm8QMT+w4F1XsDMZncObXz9VjzfooFgep43Hb8MvWplh9KzzUrmaE1CHLeAvAlcEPNpHXBuN8MFJddgL43Icl1js2NiX1mCZMrroOq4eNBMib+HAZFOvptzeQZ81K23CpkloHVDvs9cc/lCvc5GlsIE95mXX9YNxDvj51DFGorcra51pJFbUN1FRXlfiGibVrW6ftg2QduxxfAXAFeNI23dBE2WwHjOvB5+bN7d/6kcuttnl1G3zD/dR5snPu2T2YBFjwmXsSUNYcUEMVe/3xKczEsGfQNkdvUFWbOiZCoZ54HSc7qX9Y5WJ+IbWTR2ng8lLQtms5vwTgytSUHtzIeHFpB4wDvIE6NdenwZ0WsBV7U4ZBJuhtLfHpRx/59nVQ526r17VgtdfvIm93Mob2nto6RpWJUKivnVpjU5zmNGcL+bv91KS0KKEFKgCuTI2Pwe0LO0ba6UE7YAzgusUjk7GupkSPbDRba52DBzyJi77k8be6LrD3xkz9cYZZwM3FqzXqAtY6b3J9pbMCC8DtgJtwpCzNG/MWeFQvyABmnybMBvA+n232hgMvV8DD1FGXCW6zbgCuXF7eW+ZelOSpwtQlepWyA8AN50OU4C5r2OLe1kEhNbSZjlDoYH2ix7eGG0z98eZpe/BwB9WrD7Srhlr7rKuDSDhILT9SHywArlxe3lsGcDOp5MUe+01WKmUGMHsPHr85y8KIKHK5xXYzlnWRGWhWcBnkOZh0BAV3VS4O4Pa2rfYlX0gOt1N9YooSgCuXl/c2DeBEKcv18xZ9nAEem3YzF1HMacK19ik/85uhPXEHY/igJwGxYZSRu7aBfI32BZ+5D0BOPTgFyWebiowtBm2fP32JIcryxtpqfVrAzWIpN1wlzaw4APxxb9LdiEkXcqlj+0iQLesutxZmcgOcKHTAfhuC9a1huNzkTsCPHtyCZDm/ygg4EaXcMmvNrDgA3JwhiS+9q6X6uSV0Zql+bG6ZXpUtK/eQ92A/hbus+9ZzBdy0K9zVYn2buFZSZV0LdYbsc+cAfDljjbYLUkD2NKEgo6WmCsClOi8kbwAuxGipaQJwqc4LyRuACzFaapoAXKrzQvIG4EKMlpomAJfqvJC8AbgQo6WmCcClOi8k7/8D/vUXRWRiXvAAAAAASUVORK5CYII=;" parent="WIyWlLk6GJQsqaUBKTNV-1" vertex="1">
          <mxGeometry x="554.63" y="190" width="132.29" height="110" as="geometry" />
        </mxCell>
        <mxCell id="pqw7fjh9GeG_KR5K5NP--41" style="edgeStyle=orthogonalEdgeStyle;rounded=0;orthogonalLoop=1;jettySize=auto;html=1;fontFamily=Helvetica;fontSize=18;fontColor=#FF3333;strokeWidth=2;" parent="WIyWlLk6GJQsqaUBKTNV-1" source="pqw7fjh9GeG_KR5K5NP--40" edge="1">
          <mxGeometry relative="1" as="geometry">
            <mxPoint x="534" y="550" as="targetPoint" />
          </mxGeometry>
        </mxCell>
        <mxCell id="pqw7fjh9GeG_KR5K5NP--40" value="" style="shape=image;verticalLabelPosition=bottom;labelBackgroundColor=#ffffff;verticalAlign=top;aspect=fixed;imageAspect=0;image=data:image/png,iVBORw0KGgoAAAANSUhEUgAAALwAAACTCAYAAAA0s3NIAAALaklEQVR4Ae2c72tb5xXH75/Ql3rXGgLDEGgMY7PebLVGGfUILYK8MYTOaGEYNWuL8X6gZQ3GC8GIpQtmP4LqtBn2IMPZSKdQ1ilZmlUepNhd08pkbmVo2MRImNhMZrYMzngkXd2rr31lSb5Heip9BUI60r3nnvs5H10997myHeGNBAaIgDNA+8pdJQGh8JRgoAhQ+IFqN3eWwtOBgSJA4Qeq3dxZCk8HBooAhYd2O995T8K6P3Z6XZ76+d3K/fTbf5P1vz6ErTHsNgEKD8TDkj0ozxNnPxAjf/nf/4MtM+wGAQoPlINEDft1I/7r7z2ArTPUJkDhgXDYYu+X77lLH/NoDz3QDCk80N1PUI33j/y4IFv/+A9UwlCDAIUHqhpCt5LTDHE4rodmKIQUHqC2IqfWMuZIz5suAQoPfLVkbjXvi1c/hYoYhkmAwgPNVsXUXI7jeWhKiCGFB5iaIrea+/nLW1AVw7AIUHgg2aqU2svxqiw0JqSQwgNIbZFbzX/u1t+hMoZhEKDwQLFVIbWX44wNNCakkMIDSG2R28nPeXloTgghhQeI7QipveyNT/4F1TE8KAEKDwS1JW4nP4WH5oQQUniA2I6Q2svyxBWaE0JI4QGitsTt5L/Inw9Ddw4eUnhg2I6Q2stySAPNCSGk8ABRW+J28lN4aE4IIYUHiJ/76jfk6MmzqvfnXpqXxGxG4ufelonX1uTJVz/a8+9ooTSGIRCg8ADx818ck17cT8yckRMX3pHHz35Qkf/ZNz6GyhiGQYDCA8VeyI7bjJ/9jSzc5M+EoTWhhBQeMKJ8vYi/NPY1efiQ/9IDWhNKSOEBYy8Ex20u//JXUBXDsAhQeCCJ8nU7/ubUy1ARwzAJUHig2W3B/dv7QvQr8pfNT6Ciavjr+6U9X+eL7RGg8MDLL2C3n7/527egmmp4sfSpPHbrLdna4bh+T0BtvEjhAVa3JXe3l1n8BVRSDcuP/luR3bnxphy5fXPPZfhi6wQoPLByBezm409++hpU4YVf33hfjOzunUMbj00nzyg8UOum6GZbr7+xDBV4oRnKuKK7j0+t570F+KxtAhQekHVL+KkXpuX9P9+BrXvh+vY/d8nuSm/e460zAhQeuGkL/+3vviJ/fPdPsNXG0AhtTlJdwfHx3L1i4wqMWiZA4QGVEd7MhYdxf+FbM/L9H/xQfnbhotx8592Wrp6aMXoz2Y38X+awBrrWekjhW2elvuRLmx8GHtXxKK9eTJ9ugMJb0Ngb5QeVKUeUullsQdmfyRIofA/bZsbqZtalmdhB7/EiVGeNo/Cdcet4LXMh6dV7xbaP6Cg+Z2o6awGFB25/KD+QMO9G7tNbd8VcQHpiNdfR0RxlNzFvnRGg8MBtL7lsfA3KZtgiAQoPoGyUG2t6kr+pga61HlJ4YIVy2Ri/uPkhVM2wVQIUHkjZKDjWxBNWaFobIYUHWCiXbfHjq7+Hihm2Q4DCAy3bBMd6zC8oeeucAIUHdiiYTTGP7tCsDkIKD9BsEhxr4R9/QLM6CCk8QEPJbIlf2boLlTLshACFB2q2CO6v49k7t6FKhp0SoPBAzi+aDc+f31gX8/sb3sIhQOGBow2SuzVwGAPNCSGk8ADRla2Xj+Yvmsxv5HkLnwCFB6a9FN38Robz7NCQkEMKD0C7JbyZUzdHcnNCaiTnH3RAI5RCCq8ElmntJEDh7ewLq1IiQOGVwDKtnQQovJ19YVVKBCi8ElimtZMAhbezL6xKiQCFVwLLtHYSoPB29oVVKRGg8EpgmdZOAhTezr6wKiUCFF4JLNPaSYDC29kXVqVEgMIrgWVaOwlQeDv7wqqUCFB4JbBMaycBCm9nX1iVEgEKrwSWae0kQOHt7AurUiJA4ZXAMq2dBCi8nX1hVUoEKLwSWKa1kwCFt7MvrEqJAIVXAsu0dhKg8Hb2hVUpEaDwSmCZ1k4CFN7OvrAqJQIUXgks09pJgMLb2RdWpUSAwiuBZVo7CVB4O/vCqpQIUHglsExrJwEKb2dfWJUSAQqvBJZp7SRA4e3sC6tSIkDhlcAyrZ0EKLydfWFVSgQovBJYprWTAIW3sy+sSokAhVcCy7R2EqDwdvaFVSkRoPBKYJnWTgIU3s6+sColAhReCSzT2kmAwtvZF1alRIDCK4FlWjsJUHg7+8KqlAhQeCWwTGsnAQpvZ19YlRIBCq8ElmntJEDh7ewLq1IiQOGVwDKtnQQovJ19YVVKBCi8ElimtZMAhbezL6xKiQCFVwLLtHYSoPB29oVVKRGg8EpgmdZOAhTezr6wKiUCFF4JLNPaSYDC29kXVqVEgMID2PysI44TcD8UldjknCytlmAthp8VAhQeOtVU+PoHISKxM3nZgXW7Fm6Xpbiek5XFjOTLXdtqX2yIwkMb/cKPHE9Jej5duaem4hI95D/yRyR1vRfKl2TpmFtHXJbuwQ4wbEqAwgMev/DxZRi6PCrIwjOubI44p/KwdjdCCn8QyhQe6DUVXkSKl+LeGP/YksBHArJphBT+IFQpPNDbV/gLMU/4mdwe4/iyFK7MSWJsWCKVMX9Eho8mJX2lIIHD7UclyZ1PSnx0qJY7IsNjCZlrWMcvuu9bpn5e4R/e7EjxWrqxhl35YMcHJKTw0Ohmwu9sLslExJVtROZWYQy/vSbpoxHvA1GXsbpO5Gha1rZhg1tZSY66OXc/Dk2u1L5FWhV+R/Kz0cAaoiezUoQSBimk8NBtv/CB05POkCQWC3B0L0t2yif7oajEp1KCJ7uRhm+FRokjh2OSmElJ8lhUhuofFvfkuCz5RXMCnZKJI+4HY0Qmvlc9qU7P12ZsNjMy7lvXfLtMT43LcP2DGpHk1cDvGqDRfyGFh57uL/ywxF/OSHYTpFlPy0hNtJGZLAxfypI7NVI76kZl4U5tozslWbuek1zl3jjkKV1O1I/SkTNrvir9HxL/MKa2yOpcfT3nZNb7UG4uSWJyWtKLK5LbgNp92fv9KYWHDvuF909LpuenfWNic4SNyMSyNzhYO+Md3cen3KOu9zh3whv7xy5461U2b8S/kqlPgabPL0l+OeWJO+ufDdpH+HtLEneP8KMpWdkoe9LDvg5iSOGh637hd01Likj51pxEXaGchKzcNwlKsnLcHWa08OgTeGd1TmL14UbAur7lzbaaz8PvSPFSwjckMjmHJPp0QqYXs1Ic3IN7pdMUvk3hRYqSedoTM3XrAMLfz0pyP9nNh6st4Ws7dL8gueUFmZ6MNV4wi0zI0hbs9ACFFB6avd8RHoWf/l11psY/pEleg9kb2IYblq8m68OWyPGMrFW+Lcy7O1K+vSAx95ukE+HdjdQey1ena9OkvbpgBgX1KKTwAH4/4cvXU/WTU8cZkfR6LYHvpNUZTUkWrkgVl5OSmMnIympByo+q65SWvYtYI/P+E1OR8pWkJ2ig8I7gh6twOV2ZGYqNTUhmw7dz/vp6csHMV0sPn1J4gO8XvvlJqyPOMxnfnHa5cVrSjJuPJSV1yn9ByRFnNC11tf0SOtULVLuW3zWkEfF/mziRYRmfSsn05EIlr/nWqF7wqo3dJ6cl1TAt6cjIj+oVwN73f0jhocd+4YPn4R1xDiVkBcfC2wXJTLpXS71xfj3PrnXMya43u1NfznEkMhr1vkkajvAisuW/AOZuJynZyglp8wtPzuic5PHiFzDo55DCQ3ebC1+d7ZhbzkupNiyB1c08jhSvLTRcPKpcUJpdkcKeMyRlyZ9PyvjhqviRw+OSPJ+T0pZvehGFNxst5SQ9GatfUIocTjScjJauN9YwNBqv5g2se/ee9OMrFL4fu8p9CiRA4QPR8I1+JEDh+7Gr3KdAAhQ+EA3f6EcCFL4fu8p9CiRA4QPR8I1+JEDh+7Gr3KdAAhQ+EA3f6EcCFL4fu8p9CiTwf51IGJAZ4SdZAAAAAElFTkSuQmCC;" parent="WIyWlLk6GJQsqaUBKTNV-1" vertex="1">
          <mxGeometry x="230.11" y="593" width="121.5" height="95" as="geometry" />
        </mxCell>
        <mxCell id="pqw7fjh9GeG_KR5K5NP--51" value="&lt;font style=&quot;font-size: 16px&quot;&gt;Kibana metric&lt;/font&gt;" style="text;html=1;strokeColor=none;fillColor=none;align=center;verticalAlign=middle;whiteSpace=wrap;rounded=0;dashed=1;fontFamily=Helvetica;fontSize=18;fontColor=#050505;" parent="WIyWlLk6GJQsqaUBKTNV-1" vertex="1">
          <mxGeometry x="274" y="201" width="180" as="geometry" />
        </mxCell>
        <mxCell id="pqw7fjh9GeG_KR5K5NP--52" value="&lt;font style=&quot;font-size: 16px&quot;&gt;Logstash metric&lt;/font&gt;" style="text;html=1;strokeColor=none;fillColor=none;align=center;verticalAlign=middle;whiteSpace=wrap;rounded=0;dashed=1;fontFamily=Helvetica;fontSize=18;fontColor=#050505;" parent="WIyWlLk6GJQsqaUBKTNV-1" vertex="1">
          <mxGeometry x="344" y="623" width="180" as="geometry" />
        </mxCell>
        <mxCell id="pqw7fjh9GeG_KR5K5NP--53" value="&lt;font style=&quot;font-size: 16px&quot;&gt;Beats metric&lt;/font&gt;" style="text;html=1;strokeColor=none;fillColor=none;align=center;verticalAlign=middle;whiteSpace=wrap;rounded=0;dashed=1;fontFamily=Helvetica;fontSize=18;fontColor=#050505;" parent="WIyWlLk6GJQsqaUBKTNV-1" vertex="1">
          <mxGeometry x="344" y="656" width="180" as="geometry" />
        </mxCell>
        <mxCell id="pqw7fjh9GeG_KR5K5NP--56" style="edgeStyle=orthogonalEdgeStyle;rounded=0;orthogonalLoop=1;jettySize=auto;html=1;fontFamily=Helvetica;fontSize=18;fontColor=#050505;strokeWidth=2;" parent="WIyWlLk6GJQsqaUBKTNV-1" source="pqw7fjh9GeG_KR5K5NP--54" edge="1">
          <mxGeometry relative="1" as="geometry">
            <mxPoint x="504" y="425" as="targetPoint" />
          </mxGeometry>
        </mxCell>
        <mxCell id="pqw7fjh9GeG_KR5K5NP--54" value="" style="shape=partialRectangle;whiteSpace=wrap;html=1;bottom=1;right=1;left=1;top=0;fillColor=none;routingCenterX=-0.5;fontFamily=Helvetica;fontSize=18;fontColor=#050505;rotation=-90;strokeWidth=2;" parent="WIyWlLk6GJQsqaUBKTNV-1" vertex="1">
          <mxGeometry x="285.25" y="373.75" width="120" height="102.5" as="geometry" />
        </mxCell>
        <mxCell id="pqw7fjh9GeG_KR5K5NP--57" value="&lt;font style=&quot;font-size: 16px&quot;&gt;ES metric&lt;/font&gt;" style="text;html=1;strokeColor=none;fillColor=none;align=center;verticalAlign=middle;whiteSpace=wrap;rounded=0;dashed=1;fontFamily=Helvetica;fontSize=18;fontColor=#050505;" parent="WIyWlLk6GJQsqaUBKTNV-1" vertex="1">
          <mxGeometry x="364" y="410" width="180" as="geometry" />
        </mxCell>
        <mxCell id="pqw7fjh9GeG_KR5K5NP--59" value="&lt;font style=&quot;font-size: 16px&quot;&gt;ES Log&lt;/font&gt;" style="text;html=1;strokeColor=none;fillColor=none;align=center;verticalAlign=middle;whiteSpace=wrap;rounded=0;dashed=1;fontFamily=Helvetica;fontSize=18;fontColor=#050505;" parent="WIyWlLk6GJQsqaUBKTNV-1" vertex="1">
          <mxGeometry x="364" y="440" width="180" as="geometry" />
        </mxCell>
        <mxCell id="pqw7fjh9GeG_KR5K5NP--60" value="&lt;b&gt;hot&lt;/b&gt;" style="text;html=1;strokeColor=#B20000;align=center;verticalAlign=middle;whiteSpace=wrap;rounded=0;fontFamily=Helvetica;fontSize=18;fontColor=#ffffff;fillColor=#FF3333;" parent="WIyWlLk6GJQsqaUBKTNV-1" vertex="1">
          <mxGeometry x="114" y="360" width="40" height="20" as="geometry" />
        </mxCell>
        <mxCell id="pqw7fjh9GeG_KR5K5NP--62" value="&lt;b&gt;&lt;font style=&quot;font-size: 15px&quot;&gt;warm&lt;/font&gt;&lt;/b&gt;" style="text;html=1;align=center;verticalAlign=middle;whiteSpace=wrap;rounded=0;fontFamily=Helvetica;fontSize=18;fillColor=#f0a30a;strokeWidth=1;strokeColor=#BD7000;fontColor=#ffffff;" parent="WIyWlLk6GJQsqaUBKTNV-1" vertex="1">
          <mxGeometry x="114" y="456.25" width="40" height="20" as="geometry" />
        </mxCell>
        <mxCell id="pqw7fjh9GeG_KR5K5NP--66" value="" style="shape=image;verticalLabelPosition=bottom;labelBackgroundColor=#ffffff;verticalAlign=top;aspect=fixed;imageAspect=0;image=data:image/png,iVBORw0KGgoAAAANSUhEUgAAAbIAAACICAYAAACC5W5jAAAbxUlEQVR4Ae2d+7NlRXXH/Zv8yZ+UX1IxamKMMYEftMoqScWqkASqHEpLnARRSZgyPkjkIWJhgmXiaAkEEESMBgsMGmIqKqSS8gXM3Hkww9x7hxlmZqe+97jiumu61+r96HN2n/Ptqlv72atXf/rx3d27z76v6RhIgARIgARIoGECr2nYd7pOAiRAAiRAAh2FjJWABEiABEigaQIUsqaLj86TAAmQAAlQyFgHSIAESIAEmiZAIWu6+Og8CZAACZAAhYx1gARIgARIoGkCFLKmi4/OkwAJkAAJUMhYB0iABEiABJomQCFruvjoPAmQAAmQAIWMdYAESIAESKBpAhSypouPzpMACZAACVDIWAdIgARIgASaJkAha7r46DwJkAAJkACFjHWABEiABEigaQIUsqaLj86TAAmQAAlQyFgHSIAESIAEmiZAIWu6+Og8CZAACZAAhYx1gARIgARIoGkCFLKmi4/OkwAJkAAJUMhYB0iABEiABJomQCFruvjoPAmQAAmQAIWMdYAESIAESKBpAhSypouPzpMACZAACVDIWAdIgARIgASaJkAha7r46DwJkAAJkACFjHWABEiABEigaQIUsqaLj86TAAmQAAlQyFgHSIAESIAEmiZAIWu6+Og8CZAACZAAhYx1gARIgARIoGkCFLKmi4/OkwAJkAAJUMhYB0iABEiABJomQCFruvjoPAmQAAmQwMYJ2eM/PNv92W0nut+64Uh3xfVHuvd//mR3+Imd7tIlVgYSIAESIIEWCWyMkH3jmbPdn/zdie6117yQ/Lvqr7a6f/zOdnfxYovFSJ9JgARIYHMJrL2QPfz93e6PP50XMCtsV958rPvSt7e7869yiLa5zYI5JwESaInA2grZA9/b6d7ziePJ0ZcVr9TxH3zsWPfFf9npzp2noLVUoekrCZDA5hFYOyH72pO73bs/PlzArKj9/ke2un94fLvbfYWCtnnNgzkmARJogcBaCNnFS93ego133nJs8AjMCpg9/r2btrovfHO72z5LQWuhYtNHEiCBzSHQtJCdv9Dtvc+68uatagJmBe1tH97q7nlsuzuzS0HbnGbCnJIACcyZQJNCtnvuUnfvt7a7d3y03gjMCpg9/p2/PNrd/eiZ7tQOlznOuYLTNxIggfUn0JSQvbx7sbvnG2c6jIqssPQ9vu/J3b3Sve7Ok6Ns/fZfHO0+98iZ7qVtCtr6NxfmkARIYI4EmhAyiMTdj2x3EI2+gpW7Xwrj6f8+N4nNNx882n3262e6E2coaMKWWxIgARJYBoFZC9mx0xe7Ox86073pQ9MJmAibwL3/qd1JhEzsvvGGo90dD73cHTt9QZJY2fYnvzjf4Usmtz/4cvf4f5xdmR/LSvj5Exc6PJggv/c9ubOsZJkOCZDAignMVsieevbcJFOIIjB2iw4P4fYHz0wqZJLOb37w6J7tZZUvOnF04Fd/6nj3loNHutde8/y+v9sefHlZriwtHeT34N+/tJdnm9+rP3lsaX4wIRIggdUSmKWQYUVgjVGYiAy2ImToCPX5qfcPfO7kUkr46ede2SdctmNfRyGzedTHFLKlVDsmQgKzIDBLIfun7+xUFRctZGMXe5QI30P/tlhYUrPEKWT7R6AUspq1jbZJYF4EZilkH/h83VHSVTf/etoJ75BKxGjMPfjCfu1AIaOQ1a5jtE8CcyUwSyH73RvHL6/XwvOWg0e7Ww6f3lvwgHdJNuAcFkPgHtyr406xj58L1A4UMgpZ7Tq2Cfb1giG0KYY2CMxOyP73yKuhkLzhABYzpP8diz6PhQ9PP7dY1NGnOH7yy/Pdh74w7ajwZ1uXC2gfn6J7KWQUsqiO8Pp+ArJA6ro7TyQXDK3je+X9BNbnaHZC9sD3/OXwEBkE/KBZi5bex6hqiIDZYkVF996hYYpS/IFoah/s/sPfr7v8nUJGIbP1l8c+gU1sMz6Rdq/OTsj++sunXUHQ3zhMiRlWIeILIF54wUwvapupeJh2tKNAHIuIIU60jP9vvno6ZXqyc5vYKPUqRbvPxR6TVa21NbSJbWZdC3N2Qhb9CxYIlRYeLWb4dyupgPvvfXy7wwgKIyWIjg44h1EcbD/7qxGfvo59iJaImR6J4RriyDU7EpPjP/rUcWty0uNNbJRWvPQxhWzS6rWWxjaxzaxlQXZdNyshw6eopOP3thANCJMEiIweHcl5CNihw6cvExl8zUMHmxaESn5npu9DGhidyYgP9kt/h/b6A0e6C/5AUSfVe38TG6UWLrtPIetdhTYuwia2mXUt5FkJ2RM/wo9640Uccg/eX+nRmS4kjJJyKxCtSOXeb0EEcwE2olGY+CnbZ/6n/8KTXPr2/CY2Site+phCZmsIjy2BTWwzlsG6HM9KyO58uP/novTITAolEplSIYMAQSxtgHjmRFJEK7XNTX1a+0OON7FRauGy+xSyIbVos+JsYptZ1xKelZD9+e39/6WKnSaUgsJvwlJignOlQgaxSk1ZIo0hQvbBe14S9ybfTtEowSX6s45jiTK+eZj6iz7cK8ufU3FxLopvxUsfQ8gwBXz/Uzv//z3GNxx4ce8zXlfdvLW33BrTwviw8tQBNuH/YqS/fzUlvoOJ5d7wC/kfG5BH+TA07CJvmoPsI134A79wv0yPp9KHX6gHuBeMEC/1/U6xjTRxX2Q3lVZ0Dr7gYRV5k/KTdHEM33B9SDlGbUZ4gUPuL6qjqfzh9cShw6eSZVWDJXxE+UR1Az5NVS9T+a55blZCdsX16GjKpxbxLssLqdWGsG/FCRXWpouC9xr7kK/mv/2mej+Mjhpl9JsY5Fc6iNwWv62zIXcvzkejosjnKL6Xtu30vHvRSaMBjw3Iz6Iu7RcvL+2onqV8Qqed6wi9tPQ1Wx8gGPDFEywdP7cP7uj0vbaTypM9J/7k0kmdh9ghXmmI6l8qDXsuqqPaFwhKH75gOaZeYgaoTzvQeUu1dZ2Xue3PRsh+9PPzl4mJFRd7bH8rZkdagI2KLasVJb4tBLwLk2t47yX/dFPfh+lEu6JxyKis1r93iRql7bh03nBNV+LUfq5ip+6Vc1Ejj3yO4ks6U20hQkM74BKGOT/R2ZSOKCJmuTTseTzk6TCVXUkHT/9DWaLDH9oBI/3SUdIUeY7qKBiDQ98HHOGIbV+WSC83+tJ2vf1bDp/S1WP2+7MRsi//a78PBUNEdICIQYxyU42LjuaFvQUaOh72MTWBuBC81BMdRAzXUBl1kHgigiVb24Foe2P2o0aZEzI0eq9C49qVTqfkxY0aeeRzFN9Le+i1vp0GymzxFZjyUVjKN3TcJXUjYpaynTpnhXMquzqtISwxitA2hu6XvI+eIs9RHV08SKene/vkDSxTfVOqz4BPfWyn7i19GEilv4pzsxGyRWdQPq2IaRAd9Bc47O/E5D5MKeaeEu10o8TBj6f1iE6PylCxSsRL3/Pp++r8X7CoUaaEDJ1Z9OT75oNHsszAKNUI5FzUyCOfo/iSztRb+8AidSG1xZPrVOmjLKLOKmJW6ovNy1R2bfp9nuxLHqqsfe8YefLCFHn26ugUIyOdv5J6ORXDqB56XFdxbTZC9tYb+32sFy+WJWDEpMUC+1bo5N4+29QPne2SfC1y1ofU8XtvPdHHheJ7o0ZphQyNLBKx1x94IZzy0g3N7nuNHBmLfI7i2/SmPC55IsUIaso0YSvqrCJmJf6kuE5hN5d2SadY8lCVs587j/qde3AtqX85u/p8iqU02ilG6jot7Nt2LGnJFg+eNk7fY7T71sIshOzFk/1HNrqC5hZejBGzlIhBmOyUpn6/lhIue+6K649UqSNRR6QbQOmTop1+SjnuNRKvkcNW5HMU30tbX8PUKGzhr7ShoxOMQomta+84sdf5QBhRBiVxwCUXImaSb3RGuTynRkmRXfgt9mRbkhf4UzLNB5vie26Le8ARvmILtrl75byXdpRnseFt4VMqlNhGGaEs8ECE+7EfMfXq5WKGyJ/ihr9ggvTkD8c6bXBtLcxCyB57pv//BNOgve8c5p5wZZm5/e4i7OZETESpNG25326fe376Jd9Rw9FCVvIiuGREAg5DGrnwi3zOdRIS30sbnQTyoB94JB7SjToM2PbeWcF2lD7SSYXoSR3XcyFiFsWVTszaj+zq+qPjIh5YeyxQ37wQpQ37uCcVonLAKsFciNIFS9zj/eUe9lB3PSa5986or1H9yLXNkvzkWMh5iGEuT3LPHLezELKPf+XXqwZtp586tqMiiFXqPpzDKkQbtPDhOqYmdYgWcejVkZjizKWdO/+VJ8Yv9db+Yj+qxNIRYZTqNTBcyzUUmyaOPVuREEU+R/HHpI0OIxIz78k0iht1BtFoIsW6Tznn4ufOR2Uh9ScVP4qLcvJCxMJ7oIBdiLNXF+BfKkR+e3lO2ZNzKHvPH9Sd1AOWxMfWq1+5dhHlp0+71r60sD8LIXvXocXHfHMdvz1vR1kpIYPY4UfRdn5+Mfzev6gkNQWJxnH1J9MCqYVMVktaH73jG++dfmlrVInRKEtEDPnuE7wGm2twYj/yOYo/Jm34ED3N56Zxoikcb1QkeY86O7BJhYjZ0M53rF2v40U5ecLujegwcikJno1cnR6b55xfkbCWCIpXN3P1MsoPfme3rmHlQnbu/OULNTwRkGu6QETIrrvj5N7TmRUvfS/27TcSc6sccS+enPBEiM4J4oj0xwrZOz6anle3fvY5jipxyQ8xSzpg69MYMYl8ri1kKFvPf1xLPTl7nQziRCMIYeh1/svufKOyiAQymg6D/VSIBD1KV2x6o7rcyHpsniVtu/V8ydUpayN6WEr1cVEcpI1p3lxZWB9aOl65kA0Z0UBMdPCW1ev7ZB+NQwQR4pSqFHKv3dq0hvq/88r+6UybTt/jqFGiEnt/Q0QMPno2IyGKfI7ij0lb+CINz06q0UcdFb7GgHoR/XnvKnMdeMQsF0/ym9uOtbtoU/k6luIIX6LRC6b5I4647s025OrR2DznWHqjQ4ymSvKDe/rWS/jjPRxpe6h7YJt6UMvla87nVy5kd329/4eCc0+rfUBDvFJf8OhjA/dC2PouwYeIPvVs+gm1b/pyf9QodSW2+0NFDGlbW/o414GU+hzF12nZ/Siu+IDVWjauPk51wLCt76mxv+xRRFR/IoGMhCwXP4o3BdvcYpOxeZY6ZLdT+BzZyI36h/DEQ0Cfh3mb3zkcr1zIrvkMltDuf2eljzFdiMJBwdlPUkUAsSIRTza5r32k4mPFIqYaES+1ojEVB+fgGwQWvsJnnYfUPgR8yhA1Sq9hpN4Rlvrm2Y3EJPI5ij8mbclf1PBT7zOWIWS5vEfMkJ8hYazdaLo151f0IOGVcZ9rKSZj85yyWTJd3cfv3L05nkgf7xVz8bzz6AdaHaGtXMjwDydTHT3O9elgITwYKh86fPpX3zXbL46lYmbfn+EY7+BgF/ZLxQ0jNWtL5/PaOy7/9zCphlF6LmqUXgXGtT6stU+e3VxnLPEjn6P4Y9IWHyIhS3UY3tSR51Ofa7m8R8xS/kpeve1Yu0PjI599uAy9N5X3oT6nbMm5yOZQ/208r5wxuhoqZpj6TD28Sf7mul25kOnO3e5DPCRAQCAkEBUIhL6Ge9AR2/j6GMJSEqJpQmtHPo2FeFboPFvIx5RhigY0RMxsA9PHuc5Y8h35HMXXadn9KK74EAlZagpnaCdhffSOc/5HzLwOTvKc2o61OzQ+8ulxmOpajTwPsTlVfqJyxshqzGgX5dlSmLWQQYjQ4ecEQY+OMLWnhUvvI74NiKs/cyXXc18JEV/kPmxzvyFDerLCUfuh95ctZKWdb9RAdP6x7zXMXGcsNqLOL4o/Jm3xIVq4kWrQy+h8c3mPmPUtP+Ew1u7Q+GM6W6/89TXU/VQY6nPKlj6n0661n3rA0j7IPkZn0YrSlI8YmbU0zbhyIcNHdHUH32ffLpuX0ZG1YacVIWIy7WfFDIUn16wdOxqDGNl7So+nHr6XNMroPYZU6NJGgsYicVJb76sKiBv5nOvMpZGm0pRzUVyxEf0sAT7aEAnZ4n2u/0UI2PX+ci/fI2atCRn8lTJLbfHe2eNUci33G7ZaLFP5kHMQ1RKfo3v6igzqE1iXrmqEv1MsqrNtp9bxyoXsuV+e7954Q78PBotYQHD0VzlSIoR7bKHraUiMnGzQ1yUtK5qL5bH738PJvdEWC1ymDqWNskTM8DSWa/zW7+h9kb1fH0c+R2IknUNqG8WFH9FvmGA3FaJRRJ8HgZR971zErDUhi+ojWNcKEcuhaUdiYfujWvnL2UW+o4cx1P2SNpRLY9nnVy5kyPCj/97/M08iFva9jl1kYa9jNCZxZYt3Wzrg6UWuYWttQDyjqUMdX++//SNb3fPHy/+LrfbL248ape7goo4YlRhLlksaXNQgvE498jlqSCkBk3NRXLBcjKjzv33KLYGPOt+pp411uUfMdDnreNH+WLtD40cPEzWnuCKfoxmFHNNounpoGeXSG3oeIy5pL7ntUNvLjjcLIUOmP/tw/9+TiUDY6UF0njI9aKcDU9OPdmQHf2Ta0IoYrmF0Jmn33U79+zGpMFGjtI2nZN48lXdJT7aRKHqdeuRzJEa5xofzUdxIjGAjN7USdb6IW8JOGPbZRsxsOZfaHmt3TPxoVF/6UFWaV7kPD2peHcK10pkJsYltiUCg/s0hoJ14DObgY4kPsxEyOLvoXPtP10GI8PsvHSBgEC0dvOlAO3WI92qpjsxbDBKJ2le/W6/y9u1I0IhLFoB4IyqwLREEdOqp0V3kcyRGXgP04t4evJeBXXSuKZ+lPkUdAGygA7YPWRJfb5EO7gOnqOOMmLUoZCUPVRgd4YspJQGMwDKqu7BVIqK595U4nyrfxYxOfqQv9RY+5mzrfOIe5L3kW4ko/5RP2p7ej/oAfe+c92clZADV9wPCIh4pMbPgZZQlcfQW8fUqSBsXx2NE7Nb7h/1QNeVH6tyQDq5kZIGpHa+xoROWhhltwV//RQstPDECAy89+I200FlAuPCHjgDnvXhyDZ2rF0oEXGwhn0hb/JAt/IPYyX3YRp3vkHL28iHXxtodE7+04wcfKVdhKFupV5pliaiXiChsopwkDWx13RWGeltqV2zreoo84dimg3ujIPkHJ6lzqU+miTDK/bltlN5crs9OyNC54p9PapEp3ffEDB0uvmaPe1L28M7L+2QV3qOl4pWce//d+0eGNQp/aEeCxp6rxHIeDcoLfRqt2CzZjhGyEvu5e6LRmLAoGZXl0sidjzrfoeUsPue2Y+2OjR9NUed4eeej+gMWeHDwbJRcQ95tgDhHo70S2/aeVFqSdlQG1lZ0nHtHLOnNaTs7IQOcMSMfCItdvGGBQ9TwuzP5s9f1MRZ2pN6rlQgY7nnbh7e6U9sXtckq+1El9jrIaHoBFd6b06/VaKOOKGqIQ697nYUuvBr5jjqPMeWsfbf7Y+2OjQ9/SuphnzLFqKkkjE031zamEEmb31xayGfJuzlrzzuOZgdK2C7rnlkKGTL/tw8M/30ZBKTPPLEHe8zCDvjxXz/b/+7OS2vMtTEdSekUIx4AcqHPVJvXePS1VQiZ11Gk8g52Uz55YwrLC2PKuabdKfzCg8FYUdH1B/slIfLd2rTH3kNiyYyHtecde2lNOTMStb0Srsu8Z7ZCBgjvuyv++G5uZKRXK2KEZheD5CDbL36MmVJ85Ae7uWQmPx81Rq8BwJmSBhf9rmZqMYsak9fg+16DGIHhkAAxm7ID9nwYW84522Ptjo0vfuFhKVq+3qdsS8t0TN2N6ilGNlM97HhpTVUHYcd7aJWymtN21kIGUH/4MSwP7beSUX+SCi9NJT7eg2GaEKMs+4fz+rdhMj2Jp8TcezWxm9re/ei0X7ePKs0UHUn0Q050IODhBVxHY+vT2aTuhY1odDRVw8WTbJQvL89yDf6O7bBQBl4nMkU5i796O9bu2PjaF+yDZUl9TNUdOYeywENGaUAehtTdaDoY6aN+TTFigo1cmIIXHmi9+pdLe9XnZy9kW6cudK+7tp+Q4d0XAkZhKZEpOQfxkq+G9J1efN9d+cpWq8DRYNEIc3+RKMAv2EBF9v7Q2EsCGi7m7NHIc50DhAjX0DiRJp5c+3Q88APpIG8YLcJWqZDgXvg3hYBpHugE4A/yVOILGIAR8l+Sd/g7Rflon7EPv1G2ub+I09j41h85Rp1A2ZZ00rgH5Qo+pfVU0tHbKE0psyH1BxylXYjgeltpH6hTURkgD9KGEc+zq6/Vaguaae392QsZAHzrh+Vf/jikvpivR2Ml4mXvwaITCVi5Z6+njn/jA0e7Vy9M+9+fxQdu+xFIdcolnUG/VOK7U36UiFZsefPuWDeWqI+pPE01KkI9E/sQUAiiHK9THWxCyNBcP/PPZV/T0BVgyJSgFif9g2rvx9Q6zk+Pvrp5vQtzTAIkQAIrJNCMkIHRn94WL/6QRR1jFmloYYKAIZTY++6Py6bdVljeTJoESIAE1o5AU0IG+m+90f9SPkZhetGGFqWh+7n/h6bt4T0aAwmQAAmQwPIJNCdkFy5eKnpXpUWm9v57b53+37IsvyowRRIgARJok0BzQgbM//nT4asRpxa11133YpslT69JgARIYE0INClkYP+lb+/MYmR2/LT/u6o1qSfMBgmQAAnMlkCzQgaiY5fXjx2dPfbM2dkWLB0jARIggU0h0LSQoZBu+uKplYzMuLhjU5oI80kCJDB3As0L2dwB0z8SIAESIIG6BChkdfnSOgmQAAmQQGUCFLLKgGmeBEiABEigLgEKWV2+tE4CJEACJFCZAIWsMmCaJwESIAESqEuAQlaXL62TAAmQAAlUJkAhqwyY5kmABEiABOoSoJDV5UvrJEACJEAClQlQyCoDpnkSIAESIIG6BChkdfnSOgmQAAmQQGUCFLLKgGmeBEiABEigLgEKWV2+tE4CJEACJFCZAIWsMmCaJwESIAESqEuAQlaXL62TAAmQAAlUJkAhqwyY5kmABEiABOoSoJDV5UvrJEACJEAClQlQyCoDpnkSIAESIIG6BChkdfnSOgmQAAmQQGUCFLLKgGmeBEiABEigLgEKWV2+tE4CJEACJFCZAIWsMmCaJwESIAESqEuAQlaXL62TAAmQAAlUJkAhqwyY5kmABEiABOoSoJDV5UvrJEACJEAClQlQyCoDpnkSIAESIIG6BChkdfnSOgmQAAmQQGUCFLLKgGmeBEiABEigLgEKWV2+tE4CJEACJFCZAIWsMmCaJwESIAESqEuAQlaXL62TAAmQAAlUJkAhqwyY5kmABEiABOoSoJDV5UvrJEACJEAClQlQyCoDpnkSIAESIIG6BChkdfnSOgmQAAmQQGUCFLLKgGmeBEiABEigLgEKWV2+tE4CJEACJFCZAIWsMmCaJwESIAESqEuAQlaXL62TAAmQAAlUJkAhqwyY5kmABEiABOoSoJDV5UvrJEACJEAClQlQyCoDpnkSIAESIIG6BP4PsMC91au/OWMAAAAASUVORK5CYII=;strokeWidth=2;imageBorder=#000000;" parent="WIyWlLk6GJQsqaUBKTNV-1" vertex="1">
          <mxGeometry x="270" y="80" width="287.21" height="90" as="geometry" />
        </mxCell>
        <mxCell id="pqw7fjh9GeG_KR5K5NP--70" value="ELKB集群架构" style="text;strokeColor=none;fillColor=none;html=1;fontSize=24;fontStyle=1;verticalAlign=middle;align=center;dashed=1;dashPattern=1 1;" parent="WIyWlLk6GJQsqaUBKTNV-1" vertex="1">
          <mxGeometry x="54" y="80" width="186" height="40" as="geometry" />
        </mxCell>
      </root>
    </mxGraphModel>
  </diagram>
</mxfile>
